<?xml version="1.0" encoding="utf-8"?>
<!-- Generator: Adobe Illustrator 24.1.3, SVG Export Plug-In . SVG Version: 6.00 Build 0)  -->
<svg version="1.1" id="Calque_1" xmlns="http://www.w3.org/2000/svg" xmlns:xlink="http://www.w3.org/1999/xlink" x="0px" y="0px"
	 viewBox="0 0 148.49 138.74" style="enable-background:new 0 0 148.49 138.74;" xml:space="preserve">
<style type="text/css">
	.st0{fill:#5252EE;}
	.st1{fill:#00C5D9;}
</style>
<path class="st0" d="M133.68,70.69c-1.73,0-3.46-0.66-4.78-1.98l-7.45-7.45c-0.49-0.49-0.49-1.28,0-1.77c0.49-0.49,1.28-0.49,1.77,0
	l7.45,7.45c1.66,1.66,4.36,1.66,6.02,0l2.97-2.97L95.1,19.41l-2.97,2.97c-1.66,1.66-1.66,4.36,0,6.02l7.45,7.45
	c0.49,0.49,0.49,1.28,0,1.77c-0.49,0.49-1.28,0.49-1.77,0l-7.45-7.45c-2.64-2.64-2.64-6.93,0-9.56l3.86-3.86
	c0.49-0.49,1.28-0.49,1.77,0l46.33,46.33c0.49,0.49,0.49,1.28,0,1.77l-3.86,3.86C137.15,70.03,135.41,70.69,133.68,70.69z"/>
<path class="st0" d="M138.82,62.6c-0.33,0-0.65-0.13-0.89-0.37l-41.1-41.1c-0.38-0.38-0.47-0.96-0.24-1.44l3.33-6.78
	c0.18-0.36,0.52-0.62,0.92-0.68c0.4-0.07,0.8,0.06,1.09,0.35l44.56,44.55c0.29,0.29,0.42,0.69,0.35,1.09
	c-0.07,0.4-0.32,0.74-0.68,0.92l-6.78,3.33C139.19,62.56,139,62.6,138.82,62.6z M99.24,20l39.83,39.83l4.41-2.16L101.4,15.59
	L99.24,20z"/>
<path class="st0" d="M36.89,127.72c-1.42,0-2.84-0.54-3.92-1.62c-2.16-2.16-2.16-5.68,0-7.84l35.34-35.34
	c0.49-0.49,1.28-0.49,1.77,0c0.49,0.49,0.49,1.28,0,1.77l-35.34,35.34c-1.18,1.18-1.18,3.11,0,4.3c1.18,1.18,3.11,1.18,4.3,0
	l35.34-35.34c0.49-0.49,1.28-0.49,1.77,0c0.49,0.49,0.49,1.28,0,1.77l-35.34,35.34C39.73,127.17,38.31,127.72,36.89,127.72z"/>
<path class="st0" d="M81.34,85.05c-0.32,0-0.64-0.12-0.89-0.37c-0.49-0.49-0.49-1.28,0-1.77l23.79-23.79l-4.3-4.3L76.16,78.61
	c-0.49,0.49-1.28,0.49-1.77,0s-0.49-1.28,0-1.77l24.67-24.67c0.49-0.49,1.28-0.49,1.77,0l6.07,6.07c0.23,0.23,0.37,0.55,0.37,0.89
	s-0.13,0.65-0.37,0.89L82.22,84.68C81.98,84.93,81.66,85.05,81.34,85.05z"/>
<path class="st0" d="M122.33,61.62c-0.32,0-0.64-0.12-0.89-0.37c-3.99-3.99-12.11-3.69-14.55-1.25c-0.49,0.49-1.28,0.49-1.77,0
	c-0.49-0.49-0.49-1.28,0-1.77c3.38-3.38,12.06-3.62,17.15,0.41l1.74-1.74c0.15-0.15,0.17-0.32,0.17-0.41s-0.02-0.26-0.17-0.41
	l-21.04-21.04c-0.15-0.15-0.32-0.17-0.41-0.17s-0.26,0.02-0.41,0.17l-1.75,1.74c4.04,5.09,3.79,13.77,0.41,17.15
	c-0.49,0.49-1.28,0.49-1.77,0c-0.49-0.49-0.49-1.28,0-1.77c2.44-2.44,2.75-10.55-1.25-14.55c-0.23-0.23-0.37-0.55-0.37-0.89
	c0-0.33,0.13-0.65,0.37-0.89l2.58-2.58c1.17-1.17,3.2-1.17,4.37,0l21.03,21.03c0.58,0.58,0.91,1.36,0.91,2.18s-0.32,1.6-0.91,2.19
	l-2.58,2.58C122.97,61.5,122.65,61.62,122.33,61.62z"/>
<path class="st0" d="M104.58,23.3c-0.32,0-0.64-0.12-0.89-0.37l-5.19-5.19c-0.49-0.49-0.49-1.28,0-1.77c0.49-0.49,1.28-0.49,1.77,0
	l5.19,5.19c0.49,0.49,0.49,1.28,0,1.77C105.22,23.18,104.9,23.3,104.58,23.3z"/>
<path class="st0" d="M142.21,60.94c-0.32,0-0.64-0.12-0.89-0.37l-5.19-5.19c-0.49-0.49-0.49-1.28,0-1.77c0.49-0.49,1.28-0.49,1.77,0
	l5.19,5.19c0.49,0.49,0.49,1.28,0,1.77C142.85,60.82,142.53,60.94,142.21,60.94z"/>
<path class="st1" d="M115,22.06c-0.32,0-0.64-0.12-0.89-0.37c-0.49-0.49-0.49-1.28,0-1.77l5.96-5.96c0.49-0.49,1.28-0.49,1.77,0
	c0.49,0.49,0.49,1.28,0,1.77l-5.96,5.96C115.64,21.94,115.32,22.06,115,22.06z"/>
<path class="st1" d="M122.76,29.81c-0.32,0-0.64-0.12-0.89-0.37c-0.49-0.49-0.49-1.28,0-1.77l11.99-11.99
	c0.49-0.49,1.28-0.49,1.77,0c0.49,0.49,0.49,1.28,0,1.77l-11.99,11.99C123.4,29.69,123.08,29.81,122.76,29.81z"/>
<path class="st1" d="M130.51,37.56c-0.32,0-0.64-0.12-0.89-0.37c-0.49-0.49-0.49-1.28,0-1.77l5.96-5.96c0.49-0.49,1.28-0.49,1.77,0
	c0.49,0.49,0.49,1.28,0,1.77l-5.96,5.96C131.15,37.44,130.83,37.56,130.51,37.56z"/>
<path class="st1" d="M138.26,45.32c-0.32,0-0.64-0.12-0.89-0.37c-0.49-0.49-0.49-1.28,0-1.77l8.98-8.98c0.49-0.49,1.28-0.49,1.77,0
	c0.49,0.49,0.49,1.28,0,1.77l-8.98,8.98C138.9,45.19,138.58,45.32,138.26,45.32z"/>
<path class="st0" d="M17.94,77.13c-1.42,0-2.84-0.54-3.93-1.62c-2.17-2.17-2.17-5.69,0-7.86l45.14-45.14c2.17-2.17,5.69-2.17,7.86,0
	c1.05,1.05,1.63,2.44,1.63,3.93c0,1.48-0.58,2.88-1.63,3.93L21.86,75.51C20.78,76.59,19.36,77.13,17.94,77.13z M63.08,23.39
	c-0.78,0-1.56,0.3-2.16,0.89L15.78,69.42c-1.19,1.19-1.19,3.12,0,4.31c1.19,1.19,3.12,1.19,4.31,0L65.23,28.6
	c0.58-0.58,0.89-1.34,0.89-2.16s-0.32-1.58-0.89-2.16C64.64,23.69,63.86,23.39,63.08,23.39z"/>
<path class="st0" d="M29.25,76.87c-2.81,0-5.45-1.09-7.43-3.08c-0.49-0.49-0.49-1.28,0-1.77l41.7-41.7
	c0.23-0.23,0.55-0.37,0.89-0.37l0,0c0.33,0,0.65,0.13,0.89,0.37c4.1,4.1,4.1,10.77,0,14.87l-28.6,28.6
	C34.69,75.77,32.05,76.87,29.25,76.87z M24.54,72.83c1.36,0.99,2.99,1.53,4.71,1.53c2.14,0,4.15-0.83,5.66-2.35l28.6-28.6
	c2.82-2.82,3.09-7.24,0.82-10.37L24.54,72.83z"/>
<path class="st0" d="M14.49,59.97c-0.14,0-0.28-0.02-0.41-0.07l-7.59-2.64c-0.65-0.23-1-0.94-0.77-1.59c0.23-0.65,0.94-1,1.59-0.77
	l7.59,2.64c0.65,0.23,1,0.94,0.77,1.59C15.49,59.65,15.01,59.97,14.49,59.97z"/>
<path class="st0" d="M14.85,69.83c-0.14,0-0.28-0.02-0.42-0.07L2.06,65.41c-1.01-0.35-1.75-1.19-1.99-2.23s0.07-2.11,0.83-2.87
	l14.04-14.04c0.35-0.35,0.86-0.46,1.32-0.29l4.92,1.81l-1.81-4.92c-0.17-0.46-0.06-0.97,0.29-1.32l24.13-24.13
	c0.35-0.35,0.86-0.46,1.32-0.29l4.92,1.81l-1.81-4.92c-0.17-0.46-0.06-0.97,0.29-1.32l3.29-3.29c0.75-0.75,1.83-1.06,2.87-0.83
	c1.04,0.24,1.88,0.98,2.23,1.99l4.36,12.37c0.16,0.45,0.04,0.96-0.3,1.3L15.74,69.46C15.5,69.7,15.18,69.83,14.85,69.83z
	 M16.15,48.61L2.68,62.08c-0.2,0.2-0.18,0.43-0.16,0.54s0.11,0.33,0.38,0.42l11.63,4.09l44.11-44.1L54.54,11.4
	c-0.09-0.26-0.31-0.35-0.42-0.38C54,11,53.77,10.98,53.57,11.18l-2.72,2.72l2.48,6.72c0.17,0.46,0.06,0.97-0.29,1.32
	c-0.35,0.35-0.86,0.46-1.32,0.29L45,19.76l-23,23l2.48,6.72c0.17,0.46,0.06,0.97-0.29,1.32c-0.35,0.34-0.86,0.46-1.32,0.29
	L16.15,48.61z"/>
<path class="st0" d="M42.06,32.41c-0.4,0-0.79-0.19-1.03-0.54l-4.18-6.04c-0.39-0.57-0.25-1.35,0.32-1.74
	c0.57-0.39,1.35-0.25,1.74,0.32l4.18,6.04c0.39,0.57,0.25,1.35-0.32,1.74C42.55,32.33,42.3,32.41,42.06,32.41z"/>
<path class="st0" d="M32.35,42.11c-0.32,0-0.64-0.12-0.89-0.37l-5.11-5.11c-0.49-0.49-0.49-1.28,0-1.77c0.49-0.49,1.28-0.49,1.77,0
	l5.11,5.11c0.49,0.49,0.49,1.28,0,1.77C32.99,41.99,32.67,42.11,32.35,42.11z"/>
<path class="st0" d="M48.43,70.29c-1.03,0-2.05-0.39-2.83-1.17l-3.01-3.01c-0.49-0.49-0.49-1.28,0-1.77l13.25-13.25
	c0.49-0.49,1.28-0.49,1.77,0l3.01,3.01c1.56,1.56,1.56,4.11,0,5.67l-9.35,9.35C50.48,69.9,49.45,70.29,48.43,70.29z M45.24,65.23
	l2.12,2.12c0.59,0.59,1.54,0.59,2.13,0l9.35-9.35c0.59-0.59,0.59-1.54,0-2.13l-2.12-2.12L45.24,65.23z"/>
<path class="st0" d="M113.67,127.72c-1.48,0-2.87-0.58-3.92-1.62L51.13,67.48c-0.23-0.23-0.37-0.55-0.37-0.89s0.13-0.65,0.37-0.89
	l6.07-6.07c0.49-0.49,1.28-0.49,1.77,0l58.62,58.62c1.05,1.05,1.62,2.44,1.62,3.92s-0.58,2.87-1.62,3.92
	S115.15,127.72,113.67,127.72z M53.79,66.59l57.73,57.73c1.18,1.19,3.11,1.19,4.3,0c1.18-1.18,1.18-3.11,0-4.3L58.08,62.29
	L53.79,66.59z"/>
<path class="st1" d="M35.62,22.12c-0.32,0-0.64-0.12-0.89-0.37l-5.96-5.96c-0.49-0.49-0.49-1.28,0-1.77s1.28-0.49,1.77,0l5.96,5.96
	c0.49,0.49,0.49,1.28,0,1.77C36.26,22,35.94,22.12,35.62,22.12z"/>
<path class="st1" d="M27.86,29.87c-0.32,0-0.64-0.12-0.89-0.37L14.99,17.51c-0.49-0.49-0.49-1.28,0-1.77s1.28-0.49,1.77,0
	l11.99,11.99c0.49,0.49,0.49,1.28,0,1.77C28.51,29.75,28.18,29.87,27.86,29.87z"/>
<path class="st1" d="M20.11,37.62c-0.32,0-0.64-0.12-0.89-0.37l-5.96-5.96c-0.49-0.49-0.49-1.28,0-1.77c0.49-0.49,1.28-0.49,1.77,0
	L21,35.48c0.49,0.49,0.49,1.28,0,1.77C20.75,37.5,20.43,37.62,20.11,37.62z"/>
<path class="st1" d="M12.36,45.37c-0.32,0-0.64-0.12-0.89-0.37L2.5,36.03c-0.49-0.49-0.49-1.28,0-1.77s1.28-0.49,1.77,0l8.98,8.98
	c0.49,0.49,0.49,1.28,0,1.77C13,45.25,12.68,45.37,12.36,45.37z"/>
<path class="st1" d="M120.25,93.56c-0.69,0-1.25-0.56-1.25-1.25c0-4-3.25-7.25-7.25-7.25c-0.69,0-1.25-0.56-1.25-1.25
	s0.56-1.25,1.25-1.25c4,0,7.25-3.25,7.25-7.25c0-0.69,0.56-1.25,1.25-1.25s1.25,0.56,1.25,1.25c0,4,3.25,7.25,7.25,7.25
	c0.69,0,1.25,0.56,1.25,1.25s-0.56,1.25-1.25,1.25c-4,0-7.25,3.25-7.25,7.25C121.5,93,120.94,93.56,120.25,93.56z M116.52,83.8
	c1.56,0.88,2.85,2.17,3.73,3.73c0.88-1.56,2.17-2.85,3.73-3.73c-1.56-0.88-2.85-2.17-3.73-3.73
	C119.37,81.63,118.08,82.92,116.52,83.8z"/>
<path class="st1" d="M77.47,19.52c-0.69,0-1.25-0.56-1.25-1.25c0-4-3.25-7.25-7.25-7.25c-0.69,0-1.25-0.56-1.25-1.25
	s0.56-1.25,1.25-1.25c4,0,7.25-3.25,7.25-7.25c0-0.69,0.56-1.25,1.25-1.25s1.25,0.56,1.25,1.25c0,4,3.25,7.25,7.25,7.25
	c0.69,0,1.25,0.56,1.25,1.25s-0.56,1.25-1.25,1.25c-4,0-7.25,3.25-7.25,7.25C78.73,18.96,78.16,19.52,77.47,19.52z M73.75,9.76
	c1.56,0.88,2.85,2.17,3.73,3.73c0.88-1.56,2.17-2.85,3.73-3.73c-1.56-0.88-2.85-2.17-3.73-3.73C76.59,7.59,75.3,8.88,73.75,9.76z"/>
<path class="st1" d="M23.94,111.33c-0.69,0-1.25-0.56-1.25-1.25c0-4-3.25-7.25-7.25-7.25c-0.69,0-1.25-0.56-1.25-1.25
	s0.56-1.25,1.25-1.25c4,0,7.25-3.25,7.25-7.25c0-0.69,0.56-1.25,1.25-1.25s1.25,0.56,1.25,1.25c0,4,3.25,7.25,7.25,7.25
	c0.69,0,1.25,0.56,1.25,1.25s-0.56,1.25-1.25,1.25c-4,0-7.25,3.25-7.25,7.25C25.19,110.77,24.63,111.33,23.94,111.33z M20.21,101.58
	c1.56,0.88,2.85,2.17,3.73,3.73c0.88-1.56,2.17-2.85,3.73-3.73c-1.56-0.88-2.85-2.17-3.73-3.73
	C23.06,99.41,21.77,100.7,20.21,101.58z"/>
<path class="st1" d="M75.27,123.4c-0.69,0-1.25-0.56-1.25-1.25c0-4-3.25-7.25-7.25-7.25c-0.69,0-1.25-0.56-1.25-1.25
	s0.56-1.25,1.25-1.25c4,0,7.25-3.25,7.25-7.25c0-0.69,0.56-1.25,1.25-1.25c0.69,0,1.25,0.56,1.25,1.25c0,4,3.25,7.25,7.25,7.25
	c0.69,0,1.25,0.56,1.25,1.25s-0.56,1.25-1.25,1.25c-4,0-7.25,3.25-7.25,7.25C76.52,122.83,75.96,123.4,75.27,123.4z M71.54,113.64
	c1.56,0.88,2.85,2.17,3.73,3.73c0.88-1.56,2.17-2.85,3.73-3.73c-1.56-0.88-2.85-2.17-3.73-3.73
	C74.39,111.47,73.1,112.76,71.54,113.64z"/>
<path class="st0" d="M128.75,107.36c-1.11,0-2.23-0.4-3.1-1.22c-0.89-0.83-1.4-1.96-1.45-3.17c-0.04-1.22,0.39-2.38,1.22-3.27
	c1.71-1.84,4.6-1.94,6.44-0.23c0.89,0.83,1.4,1.96,1.45,3.17c0.04,1.22-0.39,2.38-1.22,3.27l0,0
	C131.19,106.87,129.97,107.36,128.75,107.36z M131.17,105.06L131.17,105.06L131.17,105.06z M128.75,100.76
	c-0.55,0-1.1,0.22-1.5,0.65c-0.37,0.4-0.57,0.92-0.55,1.47c0.02,0.55,0.25,1.05,0.65,1.43c0.83,0.77,2.13,0.73,2.9-0.1l0,0
	c0.37-0.4,0.57-0.92,0.55-1.47s-0.25-1.05-0.65-1.43C129.76,100.94,129.25,100.76,128.75,100.76z"/>
<path class="st0" d="M40.5,88.35c-1.16,0-2.25-0.43-3.1-1.22c-1.84-1.71-1.94-4.6-0.23-6.44c1.71-1.84,4.6-1.94,6.44-0.23
	c0.89,0.83,1.4,1.96,1.45,3.17c0.04,1.22-0.39,2.38-1.22,3.27l0,0c-0.83,0.89-1.96,1.4-3.17,1.45
	C40.61,88.35,40.56,88.35,40.5,88.35z M40.51,81.75c-0.55,0-1.1,0.22-1.5,0.65c-0.77,0.83-0.72,2.12,0.1,2.9
	c0.4,0.37,0.92,0.57,1.47,0.55c0.55-0.02,1.05-0.25,1.43-0.65c0,0,0,0,0,0c0.37-0.4,0.57-0.92,0.55-1.47
	c-0.02-0.55-0.25-1.05-0.65-1.43C41.51,81.93,41.01,81.75,40.51,81.75z"/>
<path class="st0" d="M80.77,51.55c-1.16,0-2.25-0.43-3.1-1.22c-1.84-1.71-1.94-4.6-0.23-6.44c0.83-0.89,1.96-1.4,3.17-1.45
	c1.21-0.05,2.38,0.39,3.26,1.22c0.89,0.83,1.4,1.96,1.45,3.17c0.04,1.22-0.39,2.38-1.22,3.27l0,0c-0.83,0.89-1.96,1.4-3.17,1.45
	C80.88,51.55,80.82,51.55,80.77,51.55z M80.78,44.95c-0.03,0-0.05,0-0.08,0c-0.55,0.02-1.05,0.25-1.43,0.65
	c-0.77,0.83-0.72,2.13,0.1,2.9c0.4,0.37,0.94,0.57,1.47,0.55c0.55-0.02,1.05-0.25,1.43-0.65l0,0c0.37-0.4,0.57-0.92,0.55-1.47
	c-0.02-0.55-0.25-1.05-0.65-1.43C81.79,45.14,81.3,44.95,80.78,44.95z"/>
<path class="st0" d="M62.52,138.74c-1.16,0-2.25-0.43-3.1-1.22c-1.84-1.71-1.94-4.6-0.23-6.44c1.72-1.84,4.6-1.94,6.44-0.23
	c0.89,0.83,1.4,1.96,1.45,3.17s-0.39,2.38-1.22,3.26c-0.83,0.89-1.96,1.4-3.17,1.45C62.62,138.73,62.57,138.74,62.52,138.74z
	 M62.52,132.13c-0.55,0-1.1,0.22-1.5,0.65c-0.77,0.83-0.72,2.13,0.1,2.9c0.4,0.37,0.92,0.58,1.47,0.55
	c0.55-0.02,1.05-0.25,1.43-0.65c0.37-0.4,0.57-0.92,0.55-1.47c-0.02-0.55-0.25-1.05-0.65-1.43
	C63.52,132.32,63.02,132.13,62.52,132.13z"/>
</svg>
