<svg width="240" height="181" viewBox="0 0 240 181" fill="none" xmlns="http://www.w3.org/2000/svg">
<path d="M206.538 147.887C206.82 145.737 206.963 143.572 206.968 141.404V84.39C206.968 70.9399 201.637 58.0407 192.146 48.5301C182.655 39.0194 169.783 33.6764 156.362 33.6764C142.94 33.6764 130.068 39.0194 120.577 48.5301C111.087 58.0407 105.755 70.9399 105.755 84.39V141.404C105.76 143.572 105.904 145.737 106.185 147.887H206.538Z" fill="white" stroke="#1F2020" stroke-width="5.824" stroke-linecap="round" stroke-linejoin="round" stroke-dasharray="203.83 8.15 0.58 6.99"/>
<path d="M224.271 155.528C224.271 156.638 224.052 157.737 223.627 158.762C223.203 159.788 222.581 160.719 221.797 161.503C221.013 162.287 220.082 162.909 219.058 163.332C218.034 163.756 216.938 163.973 215.83 163.971H96.8865C94.6518 163.971 92.5087 163.082 90.9284 161.498C89.3481 159.915 88.4601 157.768 88.4597 155.528C88.4593 153.288 89.3468 151.139 90.927 149.554C92.5072 147.969 94.6508 147.078 96.8865 147.076H215.83C216.938 147.075 218.035 147.293 219.059 147.718C220.083 148.142 221.014 148.764 221.798 149.549C222.582 150.334 223.204 151.266 223.628 152.292C224.052 153.318 224.271 154.418 224.271 155.528Z" fill="white" stroke="#1F2020" stroke-width="5.824" stroke-linecap="round" stroke-linejoin="round"/>
<path d="M72.7262 52.8593L59.5424 45.7052L59.5896 84.6128H59.5424V126.705H71.9003V86.5615H71.9546L72.7262 52.8593Z" fill="white" stroke="#1F2020" stroke-width="5.824" stroke-linecap="round" stroke-linejoin="round" stroke-dasharray="252.16 8.15 0.58 6.99"/>
<path d="M147.796 92.7111V48.4574C147.796 36.7179 143.142 25.4592 134.858 17.1582C126.575 8.8571 115.34 4.1936 103.625 4.1936C91.9107 4.1936 80.6759 8.8571 72.3923 17.1582C64.1088 25.4592 59.455 36.7179 59.455 48.4574L72.7232 52.8593C72.7232 35.2127 86.2124 20.9089 102.839 20.9089C119.466 20.9089 132.97 35.2127 132.97 52.8593V107.246" fill="white"/>
<path d="M147.796 92.7111V48.4574C147.796 36.7179 143.142 25.4592 134.858 17.1582C126.575 8.8571 115.34 4.1936 103.625 4.1936C91.9107 4.1936 80.6759 8.8571 72.3923 17.1582C64.1088 25.4592 59.455 36.7179 59.455 48.4574L72.7232 52.8593C72.7232 35.2127 86.2124 20.9089 102.839 20.9089C119.466 20.9089 132.97 35.2127 132.97 52.8593V107.246" stroke="#1F2020" stroke-width="5.824" stroke-linecap="round" stroke-linejoin="round" stroke-dasharray="252.16 8.15 0.58 6.99"/>
<path d="M235.825 136.164C235.825 141.884 234.133 147.475 230.962 152.23C227.791 156.986 223.285 160.692 218.012 162.881C212.739 165.07 206.937 165.642 201.339 164.527C195.741 163.411 190.6 160.657 186.564 156.613C182.528 152.569 179.78 147.416 178.666 141.807C177.553 136.197 178.124 130.383 180.308 125.099C182.491 119.815 186.19 115.298 190.935 112.12C195.68 108.943 201.26 107.247 206.967 107.246C210.757 107.246 214.509 107.994 218.011 109.447C221.512 110.9 224.693 113.03 227.373 115.716C230.053 118.401 232.178 121.589 233.629 125.097C235.079 128.606 235.825 132.366 235.825 136.164Z" fill="white" stroke="#1F2020" stroke-width="5.824" stroke-linecap="round" stroke-linejoin="round" stroke-dasharray="252.16 8.15 0.58 6.99"/>
<path d="M103.251 150.163C100.526 131.624 104.685 117.397 65.7194 117.397C26.8939 117.397 30.9121 131.624 28.1873 150.163H103.251Z" fill="#66E3F6" stroke="#1F2020" stroke-width="5.824" stroke-linecap="round" stroke-linejoin="round" stroke-dasharray="167.72 8.15 0.58 6.99"/>
<path d="M124.969 164.565C124.93 157.053 121.857 150.986 118.074 150.986H11.0729C7.28683 150.986 4.2163 157.053 4.17615 164.558L124.969 164.565Z" fill="white" stroke="#1F2020" stroke-width="5.824" stroke-linecap="round" stroke-linejoin="round"/>
<path d="M217.901 136.164C217.9 138.331 217.258 140.449 216.056 142.251C214.853 144.052 213.146 145.456 211.148 146.284C209.149 147.113 206.951 147.329 204.83 146.905C202.71 146.482 200.762 145.438 199.233 143.905C197.705 142.372 196.664 140.42 196.243 138.294C195.822 136.169 196.039 133.966 196.867 131.964C197.695 129.962 199.097 128.251 200.895 127.048C202.694 125.845 204.807 125.203 206.97 125.203C208.406 125.203 209.828 125.487 211.155 126.037C212.482 126.588 213.687 127.396 214.702 128.414C215.717 129.432 216.522 130.64 217.071 131.97C217.62 133.3 217.902 134.725 217.901 136.164Z" fill="white" stroke="#1F2020" stroke-width="5.824" stroke-linecap="round" stroke-linejoin="round"/>
<path d="M13.7645 176.815H114.094" stroke="#1F2020" stroke-width="5.824" stroke-linecap="round" stroke-linejoin="round"/>
<path d="M156.36 33.6807C156.36 33.6807 152.686 87.8348 205.351 90.9218L156.36 33.6807Z" fill="white"/>
<path d="M156.36 33.6807C156.36 33.6807 152.686 87.8348 205.351 90.9218" stroke="#1F2020" stroke-width="5.824" stroke-linecap="round" stroke-linejoin="round"/>
</svg>
