<svg width="129" height="168" viewBox="0 0 129 168" fill="none" xmlns="http://www.w3.org/2000/svg">
<path d="M117.077 140.006C116.461 139.478 115.744 139.08 114.97 138.835C114.196 138.591 113.38 138.505 112.572 138.583C116.03 138.32 118.752 119.933 119.016 117.62C121.159 98.8288 120.928 76.5242 109.379 60.5739C90.6775 34.7703 37.6895 34.3193 18.1874 59.5254C9.82186 70.3401 7.56397 85.031 7.25931 98.3344C7.12718 105.279 7.67224 112.22 8.88678 119.059C9.32201 121.614 12.668 138.562 15.3901 138.562C13.9299 138.541 12.5128 139.057 11.4085 140.013C3.56649 146.701 0.697954 156.219 4.99877 161.259C9.29959 166.298 19.1449 164.951 26.9895 158.265C28.0107 157.401 28.7082 156.215 28.9678 154.903C38.5059 162.699 64.2435 157.028 64.2435 157.028C64.2435 157.028 89.8295 162.558 99.4388 154.539C99.6434 155.992 100.376 157.318 101.496 158.265C109.341 164.957 119.186 166.294 123.487 161.259C127.788 156.223 124.921 146.694 117.077 140.006Z" fill="white" stroke="#1F2020" stroke-width="5.824" stroke-linecap="round" stroke-linejoin="round" stroke-dasharray="157.24 8.15 0.58 6.99"/>
<path d="M23.604 3.00018C23.604 3.15185 23.5908 3.31532 23.5908 3.47359C23.5908 13.579 27.6052 23.2707 34.7508 30.4163C41.8965 37.5619 51.588 41.5763 61.6935 41.5763C71.799 41.5763 81.4905 37.5619 88.6361 30.4163C95.7818 23.2707 99.7961 13.579 99.7961 3.47359C99.7961 3.31532 99.7856 3.15185 99.7856 3.00018C99.7856 3.00018 88.8931 8.50904 84.9181 8.7583C78.9489 9.13814 67.6792 3.03843 61.6942 3.00018C55.7091 2.96194 44.3682 8.92056 38.3925 8.54732C34.4477 8.29806 23.604 3.00018 23.604 3.00018Z" fill="#66E3F6" stroke="#1F2020" stroke-width="5.824" stroke-linecap="round" stroke-linejoin="round"/>
<path d="M46.7567 43.4181C46.7567 43.4181 23.0923 60.595 30.3183 89.486Z" fill="white"/>
<path d="M46.7567 43.4181C46.7567 43.4181 23.0923 60.595 30.3183 89.486" stroke="#1F2020" stroke-width="5.824" stroke-linecap="round" stroke-linejoin="round"/>
<path d="M75.3445 43.4181C75.3445 43.4181 99.0049 60.595 91.7828 89.486Z" fill="white"/>
<path d="M75.3445 43.4181C75.3445 43.4181 99.0049 60.595 91.7828 89.486" stroke="#1F2020" stroke-width="5.824" stroke-linecap="round" stroke-linejoin="round"/>
</svg>
