<svg width="179" height="151" viewBox="0 0 179 151" fill="none" xmlns="http://www.w3.org/2000/svg">
<path d="M22.137 13.4198L41.2725 147.29H66.7054V131.018H145.611V147.29H175.137L156 9.91895L22.137 13.4198Z" fill="white" stroke="#1F2020" stroke-width="5.824" stroke-linecap="round" stroke-linejoin="round"/>
<path d="M156 13.4198L136.858 147.29H111.431V131.018H32.5258V147.29H3L22.1431 9.91895L156 13.4198Z" fill="white" stroke="#1F2020" stroke-width="5.824" stroke-linecap="round" stroke-linejoin="round" stroke-dasharray="268.47 8.73 0.58 6.99"/>
<path d="M156.794 10.6979C156.72 12.8117 155.81 14.8097 154.265 16.2535C152.719 17.6973 150.664 18.469 148.55 18.3992H30.367C28.2548 18.4676 26.2017 17.6951 24.6584 16.2512C23.1151 14.8074 22.2079 12.8101 22.1357 10.6979C22.2102 8.58721 23.1183 6.59213 24.6613 5.14996C26.2043 3.70778 28.2561 2.93618 30.367 3.00433H148.55C150.663 2.93479 152.716 3.70553 154.262 5.14765C155.807 6.58977 156.718 8.58563 156.794 10.6979Z" fill="white" stroke="#1F2020" stroke-width="5.824" stroke-linecap="round" stroke-linejoin="round"/>
<path d="M121.345 74.8538C121.345 96.6697 102.912 114.356 80.1722 114.356C57.4322 114.356 38.9885 96.6684 38.9885 74.8538C38.9885 53.0393 57.4208 35.3518 80.1722 35.3518C102.923 35.3518 121.345 53.0393 121.345 74.8538Z" fill="white" stroke="#1F2020" stroke-width="5.824" stroke-linecap="round" stroke-linejoin="round" stroke-dasharray="167.72 6.99 0.58 6.99"/>
<path d="M109.646 84.0887C109.646 89.2386 107.601 94.1775 103.959 97.819C100.318 101.461 95.3785 103.506 90.2286 103.506C85.0787 103.506 80.1398 101.461 76.4983 97.819C72.8568 94.1775 70.8109 89.2386 70.8109 84.0887C70.8109 73.3639 90.8631 54.2207 90.8631 54.2207C90.8631 54.2207 109.646 73.3639 109.646 84.0887Z" stroke="#1F2020" stroke-width="5.824" stroke-linecap="round" stroke-linejoin="round"/>
<path d="M102.782 83.1509C102.783 84.7391 102.471 86.3119 101.863 87.7793C101.256 89.2468 100.365 90.5802 99.2423 91.7032C98.1192 92.8262 96.7859 93.7169 95.3184 94.3243C93.8509 94.9317 92.2781 95.2438 90.6899 95.243" stroke="#1F2020" stroke-width="5.824" stroke-linecap="round" stroke-linejoin="round" stroke-dasharray="157.24 8.15 0.58 6.99"/>
<path d="M88.1839 76.6465C88.1426 81.7693 86.0787 86.6683 82.4417 90.2761C78.8047 93.8839 73.8892 95.9083 68.7662 95.9083C63.6433 95.9083 58.7279 93.8839 55.0909 90.2761C51.4539 86.6683 49.3898 81.7693 49.3485 76.6465C49.3485 65.9154 69.4007 46.7722 69.4007 46.7722C69.4007 46.7722 88.1839 65.9204 88.1839 76.6465Z" fill="#66E3F6" stroke="#1F2020" stroke-width="5.824" stroke-linecap="round" stroke-linejoin="round" stroke-dasharray="157.24 8.15 0.58 6.99"/>
<path d="M81.3312 75.7009C81.3312 78.9096 80.0565 81.987 77.7876 84.2559C75.5187 86.5248 72.4415 87.7994 69.2328 87.7994" stroke="#1F2020" stroke-width="5.824" stroke-linecap="round" stroke-linejoin="round" stroke-dasharray="157.24 8.15 0.58 6.99"/>
</svg>
