<svg width="291" height="491" viewBox="0 0 291 491" fill="none" xmlns="http://www.w3.org/2000/svg">
<g style="mix-blend-mode:luminosity" opacity="0.12">
<path d="M229.548 198.782C229.479 190.554 227.021 182.524 222.474 175.668C217.926 168.811 211.484 163.424 203.931 160.16C196.379 156.897 188.04 155.897 179.931 157.284C171.821 158.672 164.289 162.385 158.25 167.973C131.963 170.74 105.496 171.403 79.1033 169.957C67.8394 169.957 57.0365 174.43 49.0702 182.393C41.1038 190.356 36.6265 201.157 36.6229 212.421C36.6229 212.798 36.6395 213.152 36.6561 213.496C30.0553 216.362 24.291 220.858 19.9034 226.562C15.5158 232.265 12.6488 238.99 11.5719 246.105C10.4949 253.22 11.2434 260.492 13.7464 267.239C16.2494 273.985 20.4254 279.986 25.8823 284.677C31.3393 289.368 37.8984 292.595 44.9444 294.057C51.9904 295.519 59.2921 295.167 66.1648 293.034C73.0375 290.901 79.256 287.057 84.2365 281.863C89.2169 276.669 92.7959 270.295 94.6383 263.339C117.294 263.083 139.594 268.979 159.163 280.399C168.991 280.408 178.516 277.001 186.108 270.761C190.819 274.627 196.307 277.435 202.199 278.993C208.091 280.551 214.248 280.822 220.255 279.79C226.261 278.757 231.975 276.444 237.008 273.008C242.041 269.572 246.276 265.093 249.425 259.875C252.574 254.657 254.563 248.823 255.257 242.768C255.952 236.713 255.336 230.58 253.45 224.785C251.565 218.99 248.454 213.668 244.33 209.181C240.206 204.694 235.164 201.148 229.548 198.782Z" fill="#66E3F6" stroke="#1F2020" stroke-width="5.824" stroke-linecap="round" stroke-linejoin="round" stroke-dasharray="164.81 5.82 0.58 6.99"/>
<path d="M17.7744 287.177L43.2248 464.765L225.778 466.571L255.511 287.174" fill="white"/>
<path d="M17.7744 287.177L43.2248 464.765L225.778 466.571L255.511 287.174" stroke="#1F2020" stroke-width="5.824" stroke-linecap="round" stroke-linejoin="round" stroke-dasharray="164.23 8.73 0.58 6.99"/>
<path d="M288 269.886C287.998 274.472 286.175 278.869 282.932 282.111C279.689 285.353 275.291 287.174 270.706 287.174H2.57007C-2.01705 287.175 -6.41691 285.355 -9.66235 282.113C-12.9078 278.871 -14.7333 274.474 -14.7377 269.886C-14.7377 265.296 -12.9142 260.894 -9.66841 257.648C-6.42259 254.402 -2.02022 252.579 2.57007 252.579H270.682C272.954 252.579 275.204 253.027 277.303 253.897C279.402 254.767 281.309 256.042 282.915 257.65C284.521 259.257 285.795 261.165 286.663 263.265C287.532 265.364 287.978 267.614 287.977 269.886H288Z" fill="white" stroke="#1F2020" stroke-width="5.824" stroke-linecap="round" stroke-linejoin="round" stroke-dasharray="164.81 5.82 0.58 6.99"/>
<path d="M23.635 287.177C23.635 287.928 23.6019 288.708 23.6019 289.492C23.6019 319.472 35.5113 348.223 56.71 369.422C77.9086 390.621 106.66 402.53 136.639 402.53C166.619 402.53 195.371 390.621 216.569 369.422C237.768 348.223 249.677 319.472 249.677 289.492C249.677 288.725 249.66 287.941 249.644 287.177H23.635Z" stroke="#1F2020" stroke-width="5.824" stroke-linecap="round" stroke-linejoin="round"/>
<path d="M33.6165 476.027C33.4113 473.265 34.3031 470.533 36.0986 468.424C37.8942 466.316 40.4486 465 43.2081 464.762H230.044C232.802 465.002 235.355 466.319 237.15 468.427C238.945 470.535 239.838 473.265 239.635 476.027C239.831 478.785 238.935 481.509 237.141 483.612C235.347 485.716 232.798 487.03 230.044 487.272H43.2081C40.453 487.033 37.9026 485.719 36.1079 483.615C34.3133 481.511 33.4185 478.785 33.6165 476.027Z" fill="white" stroke="#1F2020" stroke-width="5.824" stroke-linecap="round" stroke-linejoin="round"/>
<path d="M162.179 400.249C162.179 402.943 161.108 405.526 159.202 407.431C157.297 409.336 154.713 410.406 152.019 410.406H126.195C124.861 410.407 123.539 410.145 122.306 409.635C121.073 409.124 119.953 408.376 119.009 407.433C118.066 406.49 117.318 405.37 116.807 404.137C116.297 402.904 116.034 401.583 116.034 400.249C116.035 398.916 116.299 397.596 116.81 396.364C117.321 395.133 118.07 394.014 119.013 393.072C119.957 392.13 121.077 391.383 122.309 390.874C123.541 390.365 124.861 390.104 126.195 390.105H152.019C154.711 390.104 157.293 391.172 159.199 393.074C161.104 394.976 162.176 397.557 162.179 400.249Z" fill="white" stroke="#1F2020" stroke-width="5.824" stroke-linecap="round" stroke-linejoin="round" stroke-dasharray="164.81 5.82 0.58 6.99"/>
<path d="M46.6413 135.756C46.6393 143.731 44.2727 151.526 39.8407 158.155C35.4088 164.785 29.1106 169.951 21.7424 173.001C14.3742 176.051 6.26696 176.848 -1.55401 175.291C-9.37498 173.733 -16.5586 169.892 -22.1963 164.252C-27.834 158.612 -31.6725 151.427 -33.2268 143.605C-34.781 135.783 -33.981 127.676 -30.9279 120.31C-27.8748 112.943 -22.7058 106.646 -16.0744 102.217C-9.44305 97.7878 -1.64719 95.4245 6.32734 95.4258C11.6232 95.4245 16.8674 96.4668 21.7602 98.4934C26.653 100.52 31.0985 103.491 34.8425 107.236C38.5865 110.982 41.5556 115.429 43.5801 120.322C45.6047 125.216 46.6448 130.46 46.6413 135.756Z" fill="white" stroke="#1F2020" stroke-width="5.824" stroke-linecap="round" stroke-linejoin="round" stroke-dasharray="167.72 8.15 0.58 6.99"/>
<path d="M4.60043 155.221C2.04539 155.221 -0.484377 154.718 -2.84489 153.74C-5.20539 152.762 -7.35038 151.329 -9.15691 149.522C-10.9634 147.715 -12.3961 145.57 -13.3735 143.209C-14.351 140.849 -14.8541 138.319 -14.8536 135.764" fill="white"/>
<path d="M4.60043 155.221C2.04539 155.221 -0.484377 154.718 -2.84489 153.74C-5.20539 152.762 -7.35038 151.329 -9.15691 149.522C-10.9634 147.715 -12.3961 145.57 -13.3735 143.209C-14.351 140.849 -14.8541 138.319 -14.8536 135.764" stroke="#1F2020" stroke-width="5.824" stroke-linecap="round" stroke-linejoin="round" stroke-dasharray="167.72 8.15 0.58 6.99"/>
<path d="M183.277 36.3906C183.272 42.8312 181.359 49.1257 177.777 54.4788C174.196 59.8319 169.108 64.0032 163.156 66.4652C157.205 68.9272 150.657 69.5694 144.341 68.3108C138.024 67.0523 132.223 63.9492 127.67 59.3941C123.116 54.839 120.016 49.0363 118.759 42.7194C117.503 36.4024 118.149 29.8549 120.613 23.9044C123.077 17.954 127.251 12.8677 132.605 9.28854C137.96 5.70938 144.255 3.79787 150.696 3.7959C154.976 3.79373 159.215 4.63541 163.17 6.27283C167.125 7.91025 170.718 10.3113 173.744 13.3386C176.77 16.3659 179.169 19.9601 180.805 23.9155C182.441 27.871 183.281 32.1102 183.277 36.3906Z" fill="white" stroke="#1F2020" stroke-width="5.824" stroke-linecap="round" stroke-linejoin="round" stroke-dasharray="167.72 8.15 0.58 6.99"/>
<path d="M149.323 52.0809C145.159 52.0826 141.164 50.4305 138.217 47.4876C135.271 44.5446 133.613 40.5518 133.61 36.3872" fill="white"/>
<path d="M149.323 52.0809C145.159 52.0826 141.164 50.4305 138.217 47.4876C135.271 44.5446 133.613 40.5518 133.61 36.3872" stroke="#1F2020" stroke-width="5.824" stroke-linecap="round" stroke-linejoin="round" stroke-dasharray="167.72 8.15 0.58 6.99"/>
</g>
</svg>
