<svg width="174" height="174" viewBox="0 0 174 174" fill="none" xmlns="http://www.w3.org/2000/svg">
<path d="M123.46 152.367V160.032H3V3H123.46V31.1546" fill="white"/>
<path d="M123.46 152.367V160.032H3V3H123.46V31.1546" stroke="#1F2020" stroke-width="5.824" stroke-linecap="round" stroke-linejoin="round" stroke-dasharray="167.72 8.15 0.58 6.99"/>
<path d="M112.042 112.178L102.506 121.702L134.879 154.114L144.414 144.59L112.042 112.178Z" fill="white" stroke="#1F2020" stroke-width="5.824" stroke-linecap="round" stroke-linejoin="round" stroke-dasharray="167.72 8.15 0.58 6.99"/>
<path d="M170.243 170.467L142.888 143.118L133.357 152.645L151.181 170.467H170.243Z" fill="white" stroke="#1F2020" stroke-width="5.824" stroke-linecap="round" stroke-linejoin="round" stroke-dasharray="167.72 8.15 0.58 6.99"/>
<path d="M60.2793 127.838C68.2329 133.862 78.098 136.804 88.0519 136.12C98.0058 135.436 107.376 131.173 114.431 124.118C121.486 117.063 125.749 107.693 126.433 97.7388C127.117 87.7849 124.175 77.9199 118.151 69.9663L60.2793 127.838Z" fill="#66E3F6" stroke="#1F2020" stroke-width="5.824" stroke-linecap="round" stroke-linejoin="round" stroke-dasharray="167.72 8.15 0.58 6.99"/>
<path d="M29.1975 146.423C30.8604 148.068 33.1049 148.99 35.4438 148.99C37.7828 148.99 40.0274 148.068 41.6903 146.423L138.512 49.6012C140.155 47.9391 141.076 45.6953 141.073 43.358C141.071 41.0207 140.146 38.7789 138.499 37.1201L29.1975 146.423Z" fill="white" stroke="#1F2020" stroke-width="5.824" stroke-linecap="round" stroke-linejoin="round" stroke-dasharray="203.83 8.15 0.58 6.99"/>
<path d="M67.5953 14.3053L101.294 48.0103" stroke="#1F2020" stroke-width="5.824" stroke-linecap="round" stroke-linejoin="round" stroke-dasharray="167.72 8.15 0.58 6.99"/>
<path d="M24.6923 28.3257L58.3908 62.0307" stroke="#1F2020" stroke-width="5.824" stroke-linecap="round" stroke-linejoin="round" stroke-dasharray="167.72 8.15 0.58 6.99"/>
<path d="M16.8574 76.6771L41.5376 101.37" stroke="#1F2020" stroke-width="5.824" stroke-linecap="round" stroke-linejoin="round" stroke-dasharray="167.72 8.15 0.58 6.99"/>
</svg>
