<svg width="318" height="556" viewBox="0 0 318 556" fill="none" xmlns="http://www.w3.org/2000/svg">
<g style="mix-blend-mode:luminosity" opacity="0.12">
<path d="M291.065 470.139C289.335 468.337 287.324 466.979 285.152 466.145C282.98 465.311 280.692 465.019 278.424 465.287C288.127 464.387 295.764 401.697 296.504 393.81C302.517 329.739 301.87 253.689 269.466 199.305C216.995 111.325 68.3277 109.787 13.6111 195.73C-9.86001 232.604 -16.1949 282.694 -17.0497 328.053C-17.4204 351.732 -15.8912 375.398 -12.4835 398.716C-11.2624 407.426 -1.87474 465.215 5.76272 465.215C1.66577 465.143 -2.31006 466.903 -5.40853 470.161C-27.4106 492.964 -35.4588 525.418 -23.3921 542.6C-11.3253 559.783 16.2975 555.191 38.307 532.392C41.172 529.446 43.129 525.405 43.8575 520.93C70.6182 547.511 142.83 528.174 142.83 528.174C142.83 528.174 214.616 547.03 241.577 519.689C242.151 524.642 244.206 529.164 247.349 532.392C269.359 555.209 296.981 559.769 309.048 542.6C321.115 525.431 313.07 492.942 291.065 470.139Z" fill="white" stroke="#1F2020" stroke-width="5.824" stroke-linecap="round" stroke-linejoin="round" stroke-dasharray="157.24 8.15 0.58 6.99"/>
<path d="M28.8083 3.00063C28.8083 3.51776 28.7713 4.07513 28.7713 4.61475C28.7713 39.0704 40.0344 72.115 60.0828 96.4788C80.1312 120.843 107.323 134.53 135.675 134.53C164.028 134.53 191.219 120.843 211.268 96.4788C231.316 72.115 242.579 39.0704 242.579 4.61475C242.579 4.07513 242.55 3.51776 242.55 3.00063C242.55 3.00063 211.989 21.7837 200.836 22.6335C184.088 23.9286 152.469 3.13103 135.677 3.00063C118.885 2.87022 87.0661 23.1868 70.3 21.9142C59.2323 21.0643 28.8083 3.00063 28.8083 3.00063Z" fill="#66E3F6" stroke="#1F2020" stroke-width="5.824" stroke-linecap="round" stroke-linejoin="round"/>
<path d="M93.7672 140.811C93.7672 140.811 27.3724 199.377 47.6465 297.884Z" fill="white"/>
<path d="M93.7672 140.811C93.7672 140.811 27.3724 199.377 47.6465 297.884" stroke="#1F2020" stroke-width="5.824" stroke-linecap="round" stroke-linejoin="round"/>
<path d="M173.975 140.811C173.975 140.811 240.359 199.377 220.096 297.884Z" fill="white"/>
<path d="M173.975 140.811C173.975 140.811 240.359 199.377 220.096 297.884" stroke="#1F2020" stroke-width="5.824" stroke-linecap="round" stroke-linejoin="round"/>
</g>
</svg>
