<svg width="378" height="550" viewBox="0 0 378 550" fill="none" xmlns="http://www.w3.org/2000/svg">
<g style="mix-blend-mode:luminosity" opacity="0.12">
<path d="M303.564 427.321C303.618 426.645 303.646 426.009 303.646 425.367C303.646 398.678 263.012 377.074 212.855 377.074C199.969 377.021 187.125 378.531 174.603 381.571C176.894 377.479 178.118 372.876 178.161 368.186" fill="white"/>
<path d="M303.564 427.321C303.618 426.645 303.646 426.009 303.646 425.367C303.646 398.678 263.012 377.074 212.855 377.074C199.969 377.021 187.125 378.531 174.603 381.571C176.894 377.479 178.118 372.876 178.161 368.186" stroke="#292A2B" stroke-width="5.824" stroke-miterlimit="10" stroke-linecap="round" stroke-linejoin="round"/>
<path d="M86.0861 326.297C35.9287 326.297 -4.70469 347.9 -4.70469 374.589C-4.70469 384.789 1.26177 394.266 11.3973 402.028C-6.90072 410.863 -18.3336 423.605 -18.3336 437.764C-18.3336 462.418 16.3603 482.73 61.1696 485.655C60.6596 487.686 60.3987 489.771 60.3925 491.866C60.3925 518.554 101.053 540.158 151.21 540.158C181.786 540.158 208.831 532.102 225.281 519.788C241.826 525.58 259.249 528.46 276.776 528.301C326.934 528.301 367.594 506.664 367.594 480.009C367.594 465.42 355.431 452.356 336.214 443.495" fill="#00C5D9"/>
<path d="M86.0861 326.297C35.9287 326.297 -4.70469 347.9 -4.70469 374.589C-4.70469 384.789 1.26177 394.266 11.3973 402.028C-6.90072 410.863 -18.3336 423.605 -18.3336 437.764C-18.3336 462.418 16.3603 482.73 61.1696 485.655C60.6596 487.686 60.3987 489.771 60.3925 491.866C60.3925 518.554 101.053 540.158 151.21 540.158C181.786 540.158 208.831 532.102 225.281 519.788C241.826 525.58 259.249 528.46 276.776 528.301C326.934 528.301 367.594 506.664 367.594 480.009C367.594 465.42 355.431 452.356 336.214 443.495" stroke="#292A2B" stroke-width="5.824" stroke-miterlimit="10" stroke-linecap="round" stroke-linejoin="round"/>
<path d="M-1.87013 16.634L142.369 237.771C143.435 239.404 144.169 241.231 144.53 243.148C144.89 245.065 144.87 247.035 144.47 248.944C144.07 250.853 143.298 252.664 142.198 254.275C141.099 255.886 139.693 257.264 138.061 258.33C136.429 259.397 134.604 260.132 132.688 260.493C130.772 260.854 128.804 260.833 126.897 260.433C124.989 260.033 123.179 259.26 121.569 258.16C119.96 257.06 118.583 255.653 117.516 254.02L-26.6921 32.842C-27.7822 31.2111 -28.538 29.3799 -28.9157 27.4546C-29.2935 25.5292 -29.2857 23.548 -28.8927 21.6258C-28.4997 19.7035 -27.7295 17.8784 -26.6265 16.2562C-25.5235 14.6339 -24.1098 13.2469 -22.4673 12.1754C-20.8248 11.1039 -18.9861 10.3693 -17.0578 10.0141C-15.1295 9.65891 -13.1499 9.6902 -11.2337 10.1062C-9.31759 10.5221 -7.50299 11.3145 -5.89509 12.4374C-4.2872 13.5602 -2.91797 14.9912 -1.86675 16.6475L-1.87013 16.634Z" fill="white" stroke="#292A2B" stroke-width="5.824" stroke-miterlimit="10" stroke-linecap="round" stroke-linejoin="round" stroke-dasharray="160.15 8.15 0.58 6.99"/>
<path d="M272.533 337.433L209.912 252.789C205.492 245.879 199.748 239.913 193.012 235.236C186.275 230.559 178.68 227.264 170.663 225.541C162.647 223.818 154.369 223.702 146.308 225.198C138.246 226.695 130.561 229.774 123.696 234.26C116.83 238.745 110.921 244.547 106.308 251.33C101.696 258.114 98.4727 265.744 96.8238 273.781C95.175 281.819 95.1336 290.103 96.702 298.156C98.2705 306.209 101.418 313.872 105.962 320.701L152.454 415.596L272.533 337.433Z" fill="white" stroke="#292A2B" stroke-width="5.824" stroke-miterlimit="10" stroke-linecap="round" stroke-linejoin="round" stroke-dasharray="157.24 8.15 0.58 6.99"/>
<path d="M113.071 192.849L88.2247 209.071L100.254 227.521L125.1 211.3L113.071 192.849Z" fill="white" stroke="#292A2B" stroke-width="5.824" stroke-miterlimit="10" stroke-linecap="round" stroke-linejoin="round" stroke-dasharray="157.24 8.15 0.58 6.99"/>
<path d="M143.332 397.049C143.332 397.049 188.702 537.481 350.326 408.588C350.326 408.588 345.029 296.264 232.359 283.119" fill="white"/>
<path d="M143.332 397.049C143.332 397.049 188.702 537.481 350.326 408.588C350.326 408.588 345.029 296.264 232.359 283.119" stroke="#292A2B" stroke-width="5.824" stroke-miterlimit="10" stroke-linecap="round" stroke-linejoin="round"/>
<path d="M111.79 245.186C111.79 245.186 120.939 299.5 157.531 326.269Z" fill="white"/>
<path d="M111.79 245.186C111.79 245.186 120.939 299.5 157.531 326.269" stroke="#292A2B" stroke-width="5.824" stroke-miterlimit="10" stroke-linecap="round" stroke-linejoin="round" stroke-dasharray="157.24 8.15 0.58 6.99"/>
<path d="M135.865 229.471C135.865 229.471 181.901 259.693 191.644 303.996Z" fill="white"/>
<path d="M135.865 229.471C135.865 229.471 181.901 259.693 191.644 303.996" stroke="#292A2B" stroke-width="5.824" stroke-miterlimit="10" stroke-linecap="round" stroke-linejoin="round" stroke-dasharray="157.24 8.15 0.58 6.99"/>
<path d="M222.51 391.882C222.51 391.882 251.961 437.552 329.326 424.488Z" fill="white"/>
<path d="M222.51 391.882C222.51 391.882 251.961 437.552 329.326 424.488" stroke="#292A2B" stroke-width="5.824" stroke-miterlimit="10" stroke-linecap="round" stroke-linejoin="round" stroke-dasharray="157.24 8.15 0.58 6.99"/>
<path d="M256.806 333.552C256.806 333.552 308.328 344.983 334.086 351.809Z" fill="white"/>
<path d="M256.806 333.552C256.806 333.552 308.328 344.983 334.086 351.809" stroke="#292A2B" stroke-width="5.824" stroke-miterlimit="10" stroke-linecap="round" stroke-linejoin="round" stroke-dasharray="157.24 8.15 0.58 6.99"/>
</g>
</svg>
