<svg width="190" height="283" viewBox="0 0 190 283" fill="none" xmlns="http://www.w3.org/2000/svg">
<path d="M153.599 114.568C153.559 109.867 152.155 105.278 149.556 101.36C146.958 97.442 143.276 94.3634 138.961 92.4985C134.645 90.6336 129.88 90.0627 125.246 90.8553C120.612 91.6479 116.308 93.7699 112.857 96.9631C97.8358 98.5442 82.7121 98.9233 67.6305 98.097C61.1939 98.0965 55.0208 100.653 50.4686 105.203C45.9165 109.753 43.358 115.926 43.356 122.362C43.356 122.577 43.3654 122.78 43.3749 122.976C39.603 124.614 36.3091 127.183 33.8019 130.442C31.2947 133.701 29.6565 137.544 29.0411 141.61C28.4257 145.676 28.8533 149.831 30.2836 153.686C31.7139 157.542 34.1002 160.97 37.2185 163.651C40.3367 166.331 44.0848 168.176 48.1111 169.011C52.1373 169.847 56.3097 169.645 60.237 168.427C64.1643 167.208 67.7177 165.011 70.5637 162.043C73.4096 159.075 75.4548 155.433 76.5076 151.458C89.4536 151.312 102.197 154.681 113.379 161.206C118.995 161.212 124.438 159.265 128.776 155.699C131.468 157.908 134.604 159.513 137.971 160.403C141.337 161.293 144.856 161.448 148.288 160.858C151.72 160.268 154.985 158.947 157.862 156.983C160.738 155.019 163.158 152.46 164.957 149.478C166.756 146.497 167.893 143.163 168.29 139.703C168.687 136.243 168.335 132.739 167.257 129.427C166.18 126.115 164.402 123.074 162.046 120.51C159.689 117.947 156.808 115.92 153.599 114.568Z" fill="#66E3F6" stroke="#1F2020" stroke-width="5.824" stroke-linecap="round" stroke-linejoin="round" stroke-dasharray="164.81 5.82 0.58 6.99"/>
<path d="M32.5853 165.08L47.1284 266.559L151.444 267.591L168.435 165.078" fill="white"/>
<path d="M32.5853 165.08L47.1284 266.559L151.444 267.591L168.435 165.078" stroke="#1F2020" stroke-width="5.824" stroke-linecap="round" stroke-linejoin="round" stroke-dasharray="164.23 8.73 0.58 6.99"/>
<path d="M187 155.199C186.999 157.82 185.957 160.333 184.104 162.185C182.251 164.038 179.738 165.078 177.117 165.078H23.8971C21.2759 165.079 18.7617 164.038 16.9072 162.186C15.0526 160.334 14.0095 157.821 14.007 155.199C14.007 152.576 15.049 150.061 16.9037 148.206C18.7585 146.351 21.2741 145.309 23.8971 145.309H177.104C178.402 145.31 179.688 145.566 180.887 146.063C182.087 146.56 183.176 147.289 184.094 148.207C185.012 149.126 185.74 150.216 186.236 151.416C186.732 152.615 186.987 153.901 186.987 155.199H187Z" fill="white" stroke="#1F2020" stroke-width="5.824" stroke-linecap="round" stroke-linejoin="round" stroke-dasharray="164.81 5.82 0.58 6.99"/>
<path d="M35.9342 165.08C35.9342 165.509 35.9153 165.955 35.9153 166.403C35.9153 183.534 42.7207 199.964 54.8342 212.077C66.9477 224.191 83.377 230.996 100.508 230.996C117.639 230.996 134.069 224.191 146.182 212.077C158.296 199.964 165.101 183.534 165.101 166.403C165.101 165.964 165.092 165.517 165.082 165.08H35.9342Z" stroke="#1F2020" stroke-width="5.824" stroke-linecap="round" stroke-linejoin="round"/>
<path d="M41.638 272.994C41.5207 271.416 42.0304 269.855 43.0564 268.65C44.0824 267.445 45.5421 266.693 47.1189 266.557H153.882C155.458 266.694 156.917 267.447 157.943 268.651C158.969 269.856 159.479 271.416 159.363 272.994C159.475 274.57 158.963 276.127 157.938 277.329C156.912 278.531 155.456 279.282 153.882 279.42H47.1189C45.5446 279.283 44.0872 278.532 43.0617 277.33C42.0362 276.128 41.5249 274.57 41.638 272.994Z" fill="white" stroke="#1F2020" stroke-width="5.824" stroke-linecap="round" stroke-linejoin="round"/>
<path d="M115.102 229.692C115.102 231.232 114.49 232.708 113.401 233.796C112.312 234.885 110.836 235.496 109.296 235.496H94.5397C93.7773 235.497 93.0223 235.347 92.3178 235.056C91.6133 234.764 90.973 234.336 90.4338 233.797C89.8946 233.258 89.467 232.619 89.1753 231.914C88.8836 231.21 88.7335 230.455 88.7338 229.692C88.7343 228.93 88.8849 228.176 89.177 227.472C89.469 226.769 89.8968 226.129 90.4359 225.591C90.9751 225.053 91.6151 224.626 92.3192 224.335C93.0233 224.044 93.7779 223.895 94.5397 223.896H109.296C110.835 223.895 112.31 224.505 113.399 225.592C114.488 226.679 115.1 228.154 115.102 229.692Z" fill="white" stroke="#1F2020" stroke-width="5.824" stroke-linecap="round" stroke-linejoin="round" stroke-dasharray="164.81 5.82 0.58 6.99"/>
<path d="M49.0807 78.5533C49.0796 83.1102 47.7273 87.5644 45.1947 91.3527C42.6621 95.141 39.0632 98.0933 34.8528 99.8361C30.6424 101.579 26.0097 102.034 21.5406 101.144C17.0714 100.254 12.9665 98.0592 9.74499 94.8364C6.52345 91.6135 4.32998 87.5078 3.44185 83.0383C2.55371 78.5688 3.01087 73.9363 4.75549 69.7266C6.50011 65.5169 9.45385 61.9191 13.2432 59.388C17.0325 56.857 21.4873 55.5066 26.0442 55.5073C29.0704 55.5066 32.0671 56.1022 34.863 57.2602C37.6588 58.4183 40.1991 60.1159 42.3386 62.2562C44.478 64.3965 46.1746 66.9375 47.3315 69.7339C48.4884 72.5302 49.0827 75.5271 49.0807 78.5533Z" fill="white" stroke="#1F2020" stroke-width="5.824" stroke-linecap="round" stroke-linejoin="round" stroke-dasharray="167.72 8.15 0.58 6.99"/>
<path d="M25.0574 89.6762C23.5974 89.6762 22.1518 89.3886 20.8029 88.8298C19.4541 88.2711 18.2284 87.452 17.1961 86.4195C16.1638 85.3871 15.3451 84.1613 14.7866 82.8123C14.228 81.4634 13.9405 80.0176 13.9408 78.5576" fill="white"/>
<path d="M25.0574 89.6762C23.5974 89.6762 22.1518 89.3886 20.8029 88.8298C19.4541 88.2711 18.2284 87.452 17.1961 86.4195C16.1638 85.3871 15.3451 84.1613 14.7866 82.8123C14.228 81.4634 13.9405 80.0176 13.9408 78.5576" stroke="#1F2020" stroke-width="5.824" stroke-linecap="round" stroke-linejoin="round" stroke-dasharray="167.72 8.15 0.58 6.99"/>
<path d="M127.158 21.7732C127.156 25.4536 126.062 29.0505 124.016 32.1094C121.969 35.1683 119.062 37.5519 115.661 38.9587C112.26 40.3656 108.518 40.7326 104.909 40.0134C101.299 39.2942 97.9844 37.521 95.3825 34.9181C92.7806 32.3152 91.0088 28.9994 90.291 25.3897C89.5733 21.78 89.942 18.0386 91.3502 14.6383C92.7585 11.238 95.1432 8.33159 98.2029 6.28636C101.263 4.24112 104.86 3.14883 108.54 3.14771C110.986 3.14646 113.408 3.62742 115.668 4.56309C117.928 5.49876 119.981 6.87081 121.711 8.60069C123.44 10.3306 124.811 12.3844 125.746 14.6446C126.68 16.9049 127.16 19.3273 127.158 21.7732Z" fill="white" stroke="#1F2020" stroke-width="5.824" stroke-linecap="round" stroke-linejoin="round" stroke-dasharray="167.72 8.15 0.58 6.99"/>
<path d="M107.756 30.7388C105.376 30.7398 103.093 29.7957 101.41 28.1141C99.7259 26.4324 98.7789 24.1508 98.7769 21.771" fill="white"/>
<path d="M107.756 30.7388C105.376 30.7398 103.093 29.7957 101.41 28.1141C99.7259 26.4324 98.7789 24.1508 98.7769 21.771" stroke="#1F2020" stroke-width="5.824" stroke-linecap="round" stroke-linejoin="round" stroke-dasharray="167.72 8.15 0.58 6.99"/>
</svg>
