<svg width="403" height="385" viewBox="0 0 403 385" fill="none" xmlns="http://www.w3.org/2000/svg">
<g style="mix-blend-mode:luminosity" opacity="0.12">
<path d="M-2.73413 30.3704L47.5281 382.001H114.331V339.26H321.588V382.001H399.142L348.876 21.1748L-2.73413 30.3704Z" fill="white" stroke="#1F2020" stroke-width="5.824" stroke-linecap="round" stroke-linejoin="round"/>
<path d="M348.876 30.3704L298.597 382.001H231.811V339.26H24.5538V382.001H-53L-2.71792 21.1748L348.876 30.3704Z" fill="white" stroke="#1F2020" stroke-width="5.824" stroke-linecap="round" stroke-linejoin="round" stroke-dasharray="268.47 8.73 0.58 6.99"/>
<path d="M350.962 23.2197C350.768 28.7718 348.378 34.0199 344.318 37.8123C340.259 41.6047 334.861 43.6316 329.308 43.4481H18.8833C13.3351 43.6279 7.94243 41.5988 3.88878 37.8063C-0.164866 34.0137 -2.54789 28.7677 -2.73737 23.2197C-2.54188 17.6756 -0.156411 12.4353 3.89648 8.64718C7.94936 4.8591 13.3387 2.83237 18.8833 3.01137H329.308C334.857 2.82871 340.252 4.85318 344.311 8.64111C348.37 12.429 350.762 17.6715 350.962 23.2197Z" fill="white" stroke="#1F2020" stroke-width="5.824" stroke-linecap="round" stroke-linejoin="round"/>
<path d="M257.849 191.735C257.849 249.037 209.434 295.492 149.704 295.492C89.974 295.492 41.529 249.034 41.529 191.735C41.529 134.436 89.9441 87.9771 149.704 87.9771C209.463 87.9771 257.849 134.436 257.849 191.735Z" fill="white" stroke="#1F2020" stroke-width="5.824" stroke-linecap="round" stroke-linejoin="round" stroke-dasharray="167.72 6.99 0.58 6.99"/>
<path d="M227.122 215.991C227.122 229.518 221.749 242.491 212.184 252.056C202.619 261.621 189.645 266.995 176.119 266.995C162.592 266.995 149.619 261.621 140.054 252.056C130.489 242.491 125.115 229.518 125.115 215.991C125.115 187.821 177.785 137.539 177.785 137.539C177.785 137.539 227.122 187.821 227.122 215.991Z" stroke="#1F2020" stroke-width="5.824" stroke-linecap="round" stroke-linejoin="round"/>
<path d="M209.092 213.527C209.094 217.699 208.275 221.83 206.679 225.685C205.084 229.539 202.744 233.041 199.794 235.991C196.845 238.941 193.342 241.281 189.488 242.876C185.633 244.471 181.502 245.291 177.331 245.289" stroke="#1F2020" stroke-width="5.824" stroke-linecap="round" stroke-linejoin="round" stroke-dasharray="157.24 8.15 0.58 6.99"/>
<path d="M170.748 196.443C170.64 209.899 165.218 222.766 155.665 232.243C146.112 241.719 133.201 247.037 119.745 247.037C106.288 247.037 93.3776 241.719 83.8244 232.243C74.2712 222.766 68.8497 209.899 68.7412 196.443C68.7412 168.256 121.411 117.974 121.411 117.974C121.411 117.974 170.748 168.269 170.748 196.443Z" fill="#66E3F6" stroke="#1F2020" stroke-width="5.824" stroke-linecap="round" stroke-linejoin="round" stroke-dasharray="157.24 8.15 0.58 6.99"/>
<path d="M152.748 193.959C152.748 202.387 149.4 210.47 143.44 216.43C137.481 222.389 129.398 225.737 120.97 225.737" stroke="#1F2020" stroke-width="5.824" stroke-linecap="round" stroke-linejoin="round" stroke-dasharray="157.24 8.15 0.58 6.99"/>
</g>
</svg>
