<svg width="380" height="407" viewBox="0 0 380 407" fill="none" xmlns="http://www.w3.org/2000/svg">
<g style="mix-blend-mode:luminosity" opacity="0.12">
<path d="M265.106 360.245V378.578H-23V3H265.106V70.338" fill="white"/>
<path d="M265.106 360.245V378.578H-23V3H265.106V70.338" stroke="#1F2020" stroke-width="5.824" stroke-linecap="round" stroke-linejoin="round" stroke-dasharray="167.72 8.15 0.58 6.99"/>
<path d="M237.797 264.123L214.991 286.902L292.417 364.423L315.224 341.644L237.797 264.123Z" fill="white" stroke="#1F2020" stroke-width="5.824" stroke-linecap="round" stroke-linejoin="round" stroke-dasharray="167.72 8.15 0.58 6.99"/>
<path d="M377 403.535L311.574 338.125L288.779 360.91L331.408 403.535H377Z" fill="white" stroke="#1F2020" stroke-width="5.824" stroke-linecap="round" stroke-linejoin="round" stroke-dasharray="167.72 8.15 0.58 6.99"/>
<path d="M113.996 301.578C133.019 315.986 156.614 323.022 180.421 321.386C204.228 319.751 226.638 309.554 243.512 292.68C260.386 275.807 270.582 253.396 272.217 229.589C273.853 205.782 266.817 182.188 252.409 163.165L113.996 301.578Z" fill="#66E3F6" stroke="#1F2020" stroke-width="5.824" stroke-linecap="round" stroke-linejoin="round" stroke-dasharray="167.72 8.15 0.58 6.99"/>
<path d="M39.6573 346.029C43.6346 349.963 49.0028 352.169 54.5969 352.169C60.1909 352.169 65.5596 349.963 69.5368 346.029L301.108 114.457C305.038 110.482 307.24 105.116 307.234 99.5253C307.228 93.9351 305.015 88.5732 301.077 84.606L39.6573 346.029Z" fill="white" stroke="#1F2020" stroke-width="5.824" stroke-linecap="round" stroke-linejoin="round" stroke-dasharray="203.83 8.15 0.58 6.99"/>
<path d="M131.494 30.0391L212.092 110.652" stroke="#1F2020" stroke-width="5.824" stroke-linecap="round" stroke-linejoin="round" stroke-dasharray="167.72 8.15 0.58 6.99"/>
<path d="M28.8818 63.5725L109.479 144.186" stroke="#1F2020" stroke-width="5.824" stroke-linecap="round" stroke-linejoin="round" stroke-dasharray="167.72 8.15 0.58 6.99"/>
<path d="M10.1431 179.215L69.1713 238.275" stroke="#1F2020" stroke-width="5.824" stroke-linecap="round" stroke-linejoin="round" stroke-dasharray="167.72 8.15 0.58 6.99"/>
</g>
</svg>
