<svg width="167" height="219" viewBox="0 0 167 219" fill="none" xmlns="http://www.w3.org/2000/svg">
<path d="M137.383 170.151C137.404 169.882 137.415 169.629 137.415 169.373C137.415 158.746 121.12 150.144 101.004 150.144C95.8368 150.123 90.6857 150.724 85.6638 151.935C86.5827 150.305 87.0734 148.472 87.0906 146.605" fill="white"/>
<path d="M137.383 170.151C137.404 169.882 137.415 169.629 137.415 169.373C137.415 158.746 121.12 150.144 101.004 150.144C95.8368 150.123 90.6857 150.724 85.6638 151.935C86.5827 150.305 87.0734 148.472 87.0906 146.605" stroke="#292A2B" stroke-width="5.824" stroke-miterlimit="10" stroke-linecap="round" stroke-linejoin="round"/>
<path d="M50.1648 129.925C30.0495 129.925 13.7539 138.528 13.7539 149.155C13.7539 153.216 16.1467 156.99 20.2114 160.08C12.8732 163.598 8.28809 168.672 8.28809 174.31C8.28809 184.126 22.2018 192.214 40.1722 193.379C39.9677 194.188 39.863 195.018 39.8606 195.852C39.8606 206.479 56.1671 215.081 76.2823 215.081C88.5444 215.081 99.3906 211.873 105.988 206.97C112.623 209.276 119.61 210.423 126.639 210.36C146.755 210.36 163.061 201.744 163.061 191.131C163.061 185.322 158.184 180.12 150.477 176.592" fill="#00C5D9"/>
<path d="M50.1648 129.925C30.0495 129.925 13.7539 138.528 13.7539 149.155C13.7539 153.216 16.1467 156.99 20.2114 160.08C12.8732 163.598 8.28809 168.672 8.28809 174.31C8.28809 184.126 22.2018 192.214 40.1722 193.379C39.9677 194.188 39.863 195.018 39.8606 195.852C39.8606 206.479 56.1671 215.081 76.2823 215.081C88.5444 215.081 99.3906 211.873 105.988 206.97C112.623 209.276 119.61 210.423 126.639 210.36C146.755 210.36 163.061 201.744 163.061 191.131C163.061 185.322 158.183 180.12 150.477 176.592" stroke="#292A2B" stroke-width="5.824" stroke-miterlimit="10" stroke-linecap="round" stroke-linejoin="round"/>
<path d="M14.8906 6.62336L72.7365 94.6762C73.164 95.3265 73.4585 96.054 73.6031 96.8173C73.7477 97.5806 73.7395 98.3647 73.5791 99.1249C73.4187 99.885 73.1092 100.606 72.6682 101.248C72.2272 101.889 71.6634 102.438 71.0089 102.863C70.3545 103.287 69.6223 103.58 68.854 103.724C68.0858 103.867 67.2966 103.859 66.5315 103.7C65.7664 103.54 65.0404 103.233 64.3949 102.795C63.7495 102.357 63.1972 101.796 62.7696 101.146L4.93598 13.0771C4.49881 12.4277 4.19569 11.6986 4.04419 10.9319C3.8927 10.1653 3.89584 9.37641 4.05344 8.611C4.21103 7.84558 4.51995 7.11885 4.96228 6.47292C5.40461 5.82698 5.97157 5.27469 6.63029 4.84805C7.28902 4.4214 8.02641 4.12889 8.79974 3.98745C9.57308 3.84602 10.367 3.85848 11.1354 4.0241C11.9039 4.18973 12.6316 4.50524 13.2764 4.95234C13.9213 5.39944 14.4704 5.96925 14.892 6.62874L14.8906 6.62336Z" fill="white" stroke="#292A2B" stroke-width="5.824" stroke-miterlimit="10" stroke-linecap="round" stroke-linejoin="round" stroke-dasharray="160.15 8.15 0.58 6.99"/>
<path d="M124.938 134.36L99.8241 100.656C98.0516 97.9044 95.7481 95.5288 93.0464 93.6666C90.3448 91.8044 87.2986 90.4924 84.0837 89.8064C80.8689 89.1204 77.5491 89.074 74.3162 89.6698C71.0832 90.2657 68.001 91.492 65.2477 93.2779C62.4944 95.0639 60.1244 97.3741 58.2747 100.075C56.425 102.776 55.1322 105.815 54.471 109.015C53.8097 112.215 53.7931 115.514 54.4221 118.72C55.0512 121.927 56.3133 124.978 58.1357 127.697L76.7809 165.483L124.938 134.36Z" fill="white" stroke="#292A2B" stroke-width="5.824" stroke-miterlimit="10" stroke-linecap="round" stroke-linejoin="round" stroke-dasharray="157.24 8.15 0.58 6.99"/>
<path d="M60.9869 76.7891L51.0225 83.2482L55.8465 90.5949L65.811 84.1357L60.9869 76.7891Z" fill="white" stroke="#292A2B" stroke-width="5.824" stroke-miterlimit="10" stroke-linecap="round" stroke-linejoin="round" stroke-dasharray="157.24 8.15 0.58 6.99"/>
<path d="M73.1226 158.097C73.1226 158.097 91.3179 214.015 156.136 162.692C156.136 162.692 154.012 117.967 108.826 112.733" fill="white"/>
<path d="M73.1226 158.097C73.1226 158.097 91.3179 214.015 156.136 162.692C156.136 162.692 154.012 117.967 108.826 112.733" stroke="#292A2B" stroke-width="5.824" stroke-miterlimit="10" stroke-linecap="round" stroke-linejoin="round"/>
<path d="M60.473 97.6285C60.473 97.6285 64.1422 119.255 78.8174 129.915L60.473 97.6285Z" fill="white"/>
<path d="M60.473 97.6285C60.473 97.6285 64.1422 119.255 78.8174 129.915" stroke="#292A2B" stroke-width="5.824" stroke-miterlimit="10" stroke-linecap="round" stroke-linejoin="round" stroke-dasharray="157.24 8.15 0.58 6.99"/>
<path d="M70.1282 91.3713C70.1282 91.3713 88.5904 103.405 92.498 121.046L70.1282 91.3713Z" fill="white"/>
<path d="M70.1282 91.3713C70.1282 91.3713 88.5904 103.405 92.498 121.046" stroke="#292A2B" stroke-width="5.824" stroke-miterlimit="10" stroke-linecap="round" stroke-linejoin="round" stroke-dasharray="157.24 8.15 0.58 6.99"/>
<path d="M104.877 156.041C104.877 156.041 116.688 174.225 147.714 169.023L104.877 156.041Z" fill="white"/>
<path d="M104.877 156.041C104.877 156.041 116.688 174.225 147.714 169.023" stroke="#292A2B" stroke-width="5.824" stroke-miterlimit="10" stroke-linecap="round" stroke-linejoin="round" stroke-dasharray="157.24 8.15 0.58 6.99"/>
<path d="M118.63 132.814C118.63 132.814 139.293 137.366 149.623 140.084L118.63 132.814Z" fill="white"/>
<path d="M118.63 132.814C118.63 132.814 139.293 137.366 149.623 140.084" stroke="#292A2B" stroke-width="5.824" stroke-miterlimit="10" stroke-linecap="round" stroke-linejoin="round" stroke-dasharray="157.24 8.15 0.58 6.99"/>
</svg>
