<svg width="386" height="400" viewBox="0 0 386 400" fill="none" xmlns="http://www.w3.org/2000/svg">
<g style="mix-blend-mode:luminosity" opacity="0.12">
<path d="M312.05 326.822C312.672 322.071 312.989 317.286 313 312.495V186.497C313 156.773 301.227 128.267 280.271 107.249C259.315 86.2307 230.893 74.4229 201.257 74.4229C171.621 74.4229 143.199 86.2307 122.243 107.249C101.287 128.267 89.514 156.773 89.514 186.497V312.495C89.5253 317.286 89.8427 322.071 90.4642 326.822H312.05Z" fill="white" stroke="#1F2020" stroke-width="5.824" stroke-linecap="round" stroke-linejoin="round" stroke-dasharray="203.83 8.15 0.58 6.99"/>
<path d="M351.205 343.709C351.204 346.162 350.721 348.591 349.784 350.856C348.846 353.122 347.473 355.18 345.742 356.913C344.011 358.646 341.956 360.02 339.695 360.956C337.435 361.892 335.013 362.371 332.567 362.368H69.9317C64.9974 362.368 60.2654 360.402 56.776 356.903C53.2866 353.404 51.3257 348.658 51.3249 343.709C51.324 338.757 53.2837 334.009 56.7729 330.506C60.2621 327.004 64.9952 325.034 69.9317 325.031H332.567C335.014 325.029 337.437 325.51 339.698 326.448C341.959 327.386 344.014 328.761 345.745 330.496C347.476 332.23 348.849 334.29 349.786 336.557C350.723 338.824 351.205 341.255 351.205 343.709Z" fill="white" stroke="#1F2020" stroke-width="5.824" stroke-linecap="round" stroke-linejoin="round"/>
<path d="M16.5845 116.816L-12.5264 101.006L-12.422 186.99H-12.5264V280.011H14.7608V191.296H14.8806L16.5845 116.816Z" fill="white" stroke="#1F2020" stroke-width="5.824" stroke-linecap="round" stroke-linejoin="round" stroke-dasharray="252.16 8.15 0.58 6.99"/>
<path d="M182.343 204.886V107.088C182.343 81.1444 172.067 56.2635 153.777 37.9186C135.486 19.5737 110.679 9.26758 84.8119 9.26758C58.945 9.26758 34.1378 19.5737 15.8472 37.9186C-2.44344 56.2635 -12.7194 81.1444 -12.7194 107.088L16.5778 116.816C16.5778 77.8181 46.3628 46.2075 83.0763 46.2075C119.79 46.2075 149.607 77.8181 149.607 116.816V237.008" fill="white"/>
<path d="M182.343 204.886V107.088C182.343 81.1444 172.067 56.2635 153.777 37.9186C135.486 19.5737 110.679 9.26758 84.8119 9.26758C58.945 9.26758 34.1378 19.5737 15.8472 37.9186C-2.44344 56.2635 -12.7194 81.1444 -12.7194 107.088L16.5778 116.816C16.5778 77.8181 46.3628 46.2075 83.0763 46.2075C119.79 46.2075 149.607 77.8181 149.607 116.816V237.008" stroke="#1F2020" stroke-width="5.824" stroke-linecap="round" stroke-linejoin="round" stroke-dasharray="252.16 8.15 0.58 6.99"/>
<path d="M376.719 300.915C376.719 313.555 372.982 325.911 365.98 336.42C358.979 346.929 349.028 355.121 337.385 359.958C325.742 364.795 312.93 366.061 300.57 363.595C288.21 361.129 276.857 355.043 267.946 346.106C259.034 337.169 252.966 325.782 250.507 313.385C248.048 300.989 249.309 288.139 254.131 276.462C258.953 264.784 267.12 254.803 277.598 247.78C288.076 240.757 300.395 237.009 312.997 237.008C321.365 237.008 329.651 238.66 337.382 241.872C345.113 245.083 352.137 249.791 358.054 255.725C363.972 261.659 368.666 268.705 371.868 276.458C375.07 284.212 376.719 292.523 376.719 300.915Z" fill="white" stroke="#1F2020" stroke-width="5.824" stroke-linecap="round" stroke-linejoin="round" stroke-dasharray="252.16 8.15 0.58 6.99"/>
<path d="M83.9854 331.853C77.9688 290.883 87.1523 259.44 1.1127 259.44C-84.6166 259.44 -75.7442 290.883 -81.7607 331.853H83.9854Z" fill="#66E3F6" stroke="#1F2020" stroke-width="5.824" stroke-linecap="round" stroke-linejoin="round" stroke-dasharray="167.72 8.15 0.58 6.99"/>
<path d="M131.94 363.68C131.855 347.079 125.069 333.67 116.715 333.67H-119.55C-127.91 333.67 -134.69 347.079 -134.779 363.664L131.94 363.68Z" fill="white" stroke="#1F2020" stroke-width="5.824" stroke-linecap="round" stroke-linejoin="round"/>
<path d="M337.139 300.916C337.138 305.705 335.719 310.385 333.065 314.366C330.411 318.347 326.64 321.449 322.228 323.28C317.816 325.111 312.962 325.588 308.279 324.653C303.596 323.717 299.296 321.409 295.92 318.022C292.545 314.635 290.247 310.319 289.317 305.622C288.387 300.925 288.867 296.057 290.695 291.633C292.524 287.209 295.619 283.429 299.59 280.769C303.561 278.11 308.229 276.691 313.003 276.692C316.174 276.692 319.315 277.318 322.244 278.536C325.174 279.753 327.835 281.537 330.076 283.787C332.318 286.037 334.095 288.707 335.307 291.646C336.519 294.585 337.142 297.735 337.139 300.916Z" fill="white" stroke="#1F2020" stroke-width="5.824" stroke-linecap="round" stroke-linejoin="round"/>
<path d="M-113.607 390.751H107.928" stroke="#1F2020" stroke-width="5.824" stroke-linecap="round" stroke-linejoin="round"/>
<path d="M201.254 74.4324C201.254 74.4324 193.141 194.11 309.428 200.932Z" fill="white"/>
<path d="M201.254 74.4324C201.254 74.4324 193.141 194.11 309.428 200.932" stroke="#1F2020" stroke-width="5.824" stroke-linecap="round" stroke-linejoin="round"/>
</g>
</svg>
