<svg width="544" height="605" viewBox="0 0 544 605" fill="none" xmlns="http://www.w3.org/2000/svg">
<g opacity="0.1" clip-path="url(#clip0_5_3)">
<path d="M582.47 308.256C574.932 308.256 567.394 305.378 561.642 299.622L529.181 267.135C527.046 264.998 527.046 261.553 529.181 259.417C531.316 257.28 534.759 257.28 536.894 259.417L569.355 291.904C576.588 299.142 588.352 299.142 595.585 291.904L608.526 278.952L414.369 84.6407L401.428 97.5919C394.195 104.831 394.195 116.604 401.428 123.843L433.889 156.33C436.024 158.467 436.024 161.912 433.889 164.049C431.754 166.185 428.312 166.185 426.177 164.049L393.716 131.562C382.213 120.049 382.213 101.342 393.716 89.8735L410.535 73.0413C412.67 70.9046 416.112 70.9046 418.247 73.0413L620.116 275.071C622.251 277.208 622.251 280.653 620.116 282.79L603.297 299.622C597.589 305.378 590.008 308.256 582.47 308.256Z" fill="#5252EE"/>
<path d="M604.866 272.978C603.428 272.978 602.034 272.411 600.988 271.365L421.907 92.141C420.251 90.484 419.859 87.9548 420.861 85.8617L435.371 56.2963C436.155 54.7265 437.637 53.5927 439.379 53.331C441.122 53.0258 442.865 53.5927 444.129 54.8573L638.285 249.125C639.549 250.39 640.115 252.134 639.81 253.878C639.505 255.623 638.416 257.105 636.848 257.89L607.306 272.411C606.478 272.804 605.65 272.978 604.866 272.978ZM432.408 87.2135L605.955 260.899L625.17 251.48L441.82 67.9829L432.408 87.2135Z" fill="#5252EE"/>
<path d="M160.737 556.945C154.55 556.945 148.363 554.591 143.657 549.881C134.245 540.462 134.245 525.112 143.657 515.693L297.64 361.587C299.775 359.45 303.217 359.45 305.352 361.587C307.487 363.724 307.487 367.169 305.352 369.306L151.369 523.412C146.228 528.557 146.228 536.973 151.369 542.163C156.511 547.308 164.92 547.308 170.105 542.163L324.088 388.056C326.223 385.92 329.665 385.92 331.801 388.056C333.936 390.193 333.936 393.638 331.801 395.775L177.817 549.881C173.111 554.547 166.924 556.945 160.737 556.945Z" fill="#5252EE"/>
<path d="M354.414 370.875C353.02 370.875 351.626 370.352 350.536 369.262C348.401 367.125 348.401 363.68 350.536 361.544L454.194 257.803L435.458 239.052L331.844 342.793C329.709 344.929 326.267 344.929 324.132 342.793C321.997 340.656 321.997 337.211 324.132 335.074L431.624 227.496C433.759 225.36 437.201 225.36 439.336 227.496L465.784 253.966C466.786 254.969 467.396 256.364 467.396 257.847C467.396 259.329 466.83 260.681 465.784 261.728L358.249 369.262C357.203 370.352 355.809 370.875 354.414 370.875Z" fill="#5252EE"/>
<path d="M533.016 268.705C531.621 268.705 530.227 268.181 529.138 267.091C511.753 249.692 476.372 251 465.741 261.64C463.606 263.777 460.163 263.777 458.028 261.64C455.893 259.504 455.893 256.059 458.028 253.922C472.756 239.183 510.576 238.136 532.754 255.71L540.336 248.122C540.989 247.468 541.077 246.727 541.077 246.335C541.077 245.942 540.989 245.201 540.336 244.547L448.66 152.798C448.007 152.144 447.266 152.057 446.874 152.057C446.482 152.057 445.741 152.144 445.088 152.798L437.462 160.386C455.066 182.581 453.976 220.432 439.249 235.171C437.114 237.308 433.672 237.308 431.537 235.171C429.402 233.034 429.402 229.59 431.537 227.453C442.168 216.813 443.519 181.448 426.09 164.005C425.088 163.002 424.478 161.607 424.478 160.124C424.478 158.685 425.044 157.29 426.09 156.243L437.332 144.992C442.43 139.89 451.275 139.89 456.373 144.992L548.005 236.697C550.532 239.227 551.97 242.628 551.97 246.204C551.97 249.779 550.575 253.181 548.005 255.754L536.763 267.004C535.804 268.181 534.41 268.705 533.016 268.705Z" fill="#5252EE"/>
<path d="M455.676 101.604C454.281 101.604 452.887 101.08 451.798 99.9903L429.184 77.3584C427.049 75.2216 427.049 71.7767 429.184 69.64C431.319 67.5032 434.761 67.5032 436.896 69.64L459.51 92.2719C461.645 94.4086 461.645 97.8535 459.51 99.9903C458.464 101.08 457.07 101.604 455.676 101.604Z" fill="#5252EE"/>
<path d="M501.078 96.1965C499.683 96.1965 498.289 95.6732 497.2 94.583C495.065 92.4463 495.065 89.0014 497.2 86.8646L523.169 60.875C525.304 58.7383 528.746 58.7383 530.881 60.875C533.016 63.0117 533.016 66.4567 530.881 68.5934L504.912 94.583C503.866 95.6732 502.472 96.1965 501.078 96.1965Z" fill="#00C5D9"/>
<path d="M534.889 129.992C533.495 129.992 532.101 129.468 531.011 128.378C528.876 126.242 528.876 122.797 531.011 120.66L583.254 68.3754C585.389 66.2386 588.831 66.2386 590.966 68.3754C593.101 70.5121 593.101 73.957 590.966 76.0938L538.724 128.378C537.678 129.468 536.284 129.992 534.889 129.992Z" fill="#00C5D9"/>
<path d="M78.1681 336.339C71.9809 336.339 65.7937 333.984 61.0443 329.275C51.5892 319.812 51.5892 304.462 61.0443 295L257.728 98.1588C267.183 88.6961 282.521 88.6961 291.976 98.1588C296.551 102.737 299.078 108.799 299.078 115.296C299.078 121.75 296.551 127.855 291.976 132.434L95.2483 329.275C90.5426 333.984 84.3553 336.339 78.1681 336.339ZM274.852 101.996C271.453 101.996 268.055 103.304 265.44 105.877L68.7566 302.718C63.5715 307.907 63.5715 316.323 68.7566 321.513C73.9416 326.702 82.351 326.702 87.5361 321.513L284.22 124.715C286.747 122.186 288.098 118.872 288.098 115.296C288.098 111.72 286.704 108.406 284.22 105.877C281.649 103.304 278.251 101.996 274.852 101.996Z" fill="#5252EE"/>
<path d="M127.448 335.205C115.204 335.205 103.701 330.452 95.074 321.774C92.939 319.637 92.939 316.192 95.074 314.056L276.769 132.216C277.771 131.213 279.166 130.602 280.647 130.602C282.085 130.602 283.479 131.169 284.525 132.216C302.389 150.094 302.389 179.18 284.525 197.059L159.909 321.774C151.151 330.408 139.648 335.205 127.448 335.205ZM106.926 317.588C112.851 321.905 119.954 324.26 127.448 324.26C136.772 324.26 145.53 320.64 152.11 314.012L276.726 189.297C289.013 177 290.189 157.726 280.298 144.077L106.926 317.588Z" fill="#5252EE"/>
<path d="M63.1358 261.51C62.5258 261.51 61.9158 261.422 61.3493 261.204L28.2782 249.692C25.4461 248.689 23.921 245.593 24.9232 242.759C25.9253 239.924 29.019 238.398 31.8511 239.401L64.9222 250.913C67.7544 251.916 69.2794 255.012 68.2773 257.847C67.493 260.114 65.4015 261.51 63.1358 261.51Z" fill="#5252EE"/>
<path d="M64.7044 304.506C64.0944 304.506 63.4844 304.419 62.8744 304.201L8.97585 285.232C4.57509 283.706 1.35076 280.043 0.305033 275.507C-0.740693 270.972 0.610037 266.306 3.92151 262.992L65.0965 201.768C66.6215 200.242 68.8437 199.762 70.848 200.504L92.2854 208.397L84.3989 186.942C83.6582 184.936 84.1375 182.712 85.6625 181.186L190.802 75.963C192.327 74.4367 194.549 73.957 196.553 74.6983L217.991 82.5912L210.104 61.1367C209.363 59.1307 209.843 56.9068 211.368 55.3806L225.703 41.0339C228.971 37.7634 233.676 36.4116 238.208 37.4146C242.739 38.4612 246.399 41.688 247.924 46.0923L266.922 100.034C267.619 101.996 267.096 104.22 265.615 105.703L68.5823 302.892C67.5366 303.939 66.1423 304.506 64.7044 304.506ZM70.3687 211.972L11.6773 270.711C10.8059 271.583 10.893 272.586 10.9802 273.065C11.0673 273.545 11.4595 274.504 12.6359 274.897L63.3101 292.732L255.506 100.426L237.641 49.7117C237.249 48.5779 236.291 48.1855 235.811 48.0546C235.289 47.9674 234.286 47.8802 233.415 48.7523L221.563 60.6134L232.369 89.9171C233.11 91.923 232.631 94.147 231.106 95.6732C229.581 97.1994 227.358 97.6791 225.354 96.9378L196.074 86.1669L95.8583 186.462L106.664 215.766C107.405 217.772 106.926 219.996 105.401 221.522C103.876 223.005 101.653 223.528 99.6491 222.787L70.3687 211.972Z" fill="#5252EE"/>
<path d="M183.264 141.329C181.521 141.329 179.821 140.501 178.776 138.975L160.563 112.636C158.863 110.151 159.473 106.749 161.957 105.049C164.441 103.348 167.839 103.958 169.538 106.444L187.752 132.783C189.451 135.268 188.841 138.669 186.357 140.37C185.399 140.981 184.309 141.329 183.264 141.329Z" fill="#5252EE"/>
<path d="M140.955 183.628C139.561 183.628 138.167 183.105 137.077 182.015L114.812 159.732C112.677 157.595 112.677 154.15 114.812 152.013C116.947 149.876 120.389 149.876 122.524 152.013L144.79 174.296C146.925 176.433 146.925 179.878 144.79 182.015C143.744 183.105 142.35 183.628 140.955 183.628Z" fill="#5252EE"/>
<path d="M211.019 306.512C206.531 306.512 202.087 304.811 198.688 301.41L185.573 288.284C183.438 286.147 183.438 282.703 185.573 280.566L243.306 222.787C245.441 220.65 248.883 220.65 251.018 222.787L264.133 235.912C270.93 242.715 270.93 253.835 264.133 260.638L223.393 301.41C219.951 304.811 215.463 306.512 211.019 306.512ZM197.12 284.447L206.357 293.691C208.928 296.264 213.067 296.264 215.638 293.691L256.377 252.919C258.948 250.346 258.948 246.204 256.377 243.631L247.14 234.386L197.12 284.447Z" fill="#5252EE"/>
<path d="M495.282 556.945C488.834 556.945 482.777 554.416 478.202 549.881L222.783 294.258C221.781 293.255 221.171 291.86 221.171 290.377C221.171 288.895 221.738 287.543 222.783 286.496L249.232 260.027C251.367 257.89 254.809 257.89 256.944 260.027L512.363 515.65C516.938 520.228 519.421 526.29 519.421 532.744C519.421 539.197 516.894 545.259 512.363 549.837C507.831 554.416 501.731 556.945 495.282 556.945ZM234.374 290.377L485.914 542.119C491.056 547.308 499.465 547.308 504.65 542.119C509.792 536.973 509.792 528.557 504.65 523.368L253.066 271.626L234.374 290.377Z" fill="#5252EE"/>
<path d="M155.203 96.4581C153.809 96.4581 152.415 95.9348 151.325 94.8447L125.357 68.855C123.221 66.7183 123.221 63.2734 125.357 61.1367C127.492 58.9999 130.934 58.9999 133.069 61.1367L159.038 87.1263C161.173 89.263 161.173 92.7079 159.038 94.8447C157.992 95.9348 156.598 96.4581 155.203 96.4581Z" fill="#00C5D9"/>
<path d="M121.392 130.253C119.997 130.253 118.603 129.73 117.514 128.64L65.3144 76.3554C63.1794 74.2187 63.1794 70.7737 65.3144 68.637C67.4494 66.5003 70.8916 66.5003 73.0266 68.637L125.269 120.922C127.404 123.058 127.404 126.503 125.269 128.64C124.224 129.73 122.786 130.253 121.392 130.253Z" fill="#00C5D9"/>
<path d="M87.6232 164.049C86.2289 164.049 84.8346 163.525 83.7453 162.435L57.7764 136.446C55.6414 134.309 55.6414 130.864 57.7764 128.727C59.9115 126.59 63.3536 126.59 65.4887 128.727L91.5011 154.717C93.6362 156.853 93.6362 160.298 91.5011 162.435C90.4118 163.525 89.0175 164.049 87.6232 164.049Z" fill="#00C5D9"/>
<path d="M53.855 197.844C52.4607 197.844 51.0664 197.321 49.9771 196.23L10.893 157.115C8.75799 154.978 8.75799 151.533 10.893 149.397C13.028 147.26 16.4702 147.26 18.6053 149.397L57.7329 188.556C59.8679 190.692 59.8679 194.137 57.7329 196.274C56.6436 197.321 55.2493 197.844 53.855 197.844Z" fill="#00C5D9"/>
<path d="M523.953 407.985C520.946 407.985 518.506 405.543 518.506 402.534C518.506 385.091 504.345 370.919 486.917 370.919C483.91 370.919 481.47 368.477 481.47 365.468C481.47 362.459 483.91 360.017 486.917 360.017C504.345 360.017 518.506 345.845 518.506 328.402C518.506 325.394 520.946 322.952 523.953 322.952C526.959 322.952 529.399 325.394 529.399 328.402C529.399 345.845 543.56 360.017 560.989 360.017C563.996 360.017 566.436 362.459 566.436 365.468C566.436 368.477 563.996 370.919 560.989 370.919C543.56 370.919 529.399 385.091 529.399 402.534C529.399 405.543 526.959 407.985 523.953 407.985ZM507.701 365.425C514.498 369.262 520.119 374.887 523.953 381.69C527.787 374.887 533.408 369.262 540.205 365.425C533.408 361.587 527.787 355.962 523.953 349.159C520.119 355.962 514.498 361.587 507.701 365.425Z" fill="#00C5D9"/>
<path d="M337.552 85.1204C334.546 85.1204 332.105 82.6784 332.105 79.6695C332.105 62.2268 317.945 48.0546 300.516 48.0546C297.509 48.0546 295.069 45.6127 295.069 42.6038C295.069 39.5949 297.509 37.1529 300.516 37.1529C317.945 37.1529 332.105 22.9808 332.105 5.53806C332.105 2.52919 334.546 0.0872135 337.552 0.0872135C340.558 0.0872135 342.998 2.52919 342.998 5.53806C342.998 22.9808 357.159 37.1529 374.588 37.1529C377.595 37.1529 380.035 39.5949 380.035 42.6038C380.035 45.6127 377.595 48.0546 374.588 48.0546C357.159 48.0546 342.998 62.2268 342.998 79.6695C343.042 82.6784 340.558 85.1204 337.552 85.1204ZM321.343 42.5602C328.14 46.3976 333.761 52.0228 337.596 58.8255C341.43 52.0228 347.051 46.3976 353.848 42.5602C347.051 38.7228 341.43 33.0975 337.596 26.2949C333.718 33.0975 328.097 38.7228 321.343 42.5602Z" fill="#00C5D9"/>
<path d="M104.311 485.474C101.305 485.474 98.8648 483.032 98.8648 480.023C98.8648 462.58 84.7039 448.408 67.2751 448.408C64.2686 448.408 61.8286 445.966 61.8286 442.957C61.8286 439.948 64.2686 437.506 67.2751 437.506C84.7039 437.506 98.8648 423.334 98.8648 405.892C98.8648 402.883 101.305 400.441 104.311 400.441C107.318 400.441 109.758 402.883 109.758 405.892C109.758 423.334 123.919 437.506 141.347 437.506C144.354 437.506 146.794 439.948 146.794 442.957C146.794 445.966 144.354 448.408 141.347 448.408C123.919 448.408 109.758 462.58 109.758 480.023C109.758 483.032 107.318 485.474 104.311 485.474ZM88.0589 442.957C94.8562 446.795 100.477 452.42 104.311 459.223C108.146 452.42 113.766 446.795 120.564 442.957C113.766 439.12 108.146 433.495 104.311 426.692C100.477 433.495 94.8562 439.12 88.0589 442.957Z" fill="#00C5D9"/>
<path d="M327.966 538.107C324.96 538.107 322.52 535.665 322.52 532.656C322.52 515.214 308.359 501.042 290.93 501.042C287.923 501.042 285.483 498.6 285.483 495.591C285.483 492.582 287.923 490.14 290.93 490.14C308.359 490.14 322.52 475.968 322.52 458.525C322.52 455.516 324.96 453.074 327.966 453.074C330.973 453.074 333.413 455.516 333.413 458.525C333.413 475.968 347.573 490.14 365.002 490.14C368.009 490.14 370.449 492.582 370.449 495.591C370.449 498.6 368.009 501.042 365.002 501.042C347.573 501.042 333.413 515.214 333.413 532.656C333.413 535.622 330.973 538.107 327.966 538.107ZM311.714 495.547C318.511 499.384 324.132 505.01 327.966 511.812C331.8 505.01 337.421 499.384 344.218 495.547C337.421 491.71 331.8 486.084 327.966 479.282C324.132 486.084 318.511 491.71 311.714 495.547Z" fill="#00C5D9"/>
<path d="M560.989 468.162C556.153 468.162 551.272 466.418 547.482 462.842C543.604 459.223 541.382 454.295 541.164 449.019C540.989 443.699 542.863 438.64 546.48 434.759C553.93 426.736 566.523 426.3 574.54 433.756C578.418 437.376 580.64 442.303 580.858 447.58C581.032 452.9 579.158 457.958 575.542 461.839C571.621 466.025 566.305 468.162 560.989 468.162ZM560.989 439.382C558.593 439.382 556.196 440.341 554.453 442.216C552.841 443.96 551.97 446.228 552.057 448.626C552.144 451.025 553.146 453.205 554.889 454.862C558.505 458.22 564.17 458.045 567.525 454.426C569.137 452.682 570.008 450.414 569.921 448.016C569.834 445.617 568.832 443.437 567.089 441.78C565.39 440.166 563.168 439.382 560.989 439.382Z" fill="#5252EE"/>
<path d="M176.466 385.266C171.412 385.266 166.663 383.39 162.959 379.946C154.942 372.489 154.506 359.886 161.957 351.863C169.408 343.839 182 343.403 190.017 350.86C193.895 354.479 196.117 359.407 196.335 364.683C196.51 370.003 194.636 375.062 191.019 378.943C187.403 382.824 182.479 385.048 177.207 385.266C176.946 385.266 176.728 385.266 176.466 385.266ZM176.51 356.485C174.114 356.485 171.717 357.444 169.974 359.32C166.619 362.939 166.837 368.564 170.41 371.966C172.153 373.579 174.419 374.451 176.815 374.364C179.211 374.277 181.39 373.274 183.046 371.529C184.658 369.785 185.529 367.518 185.442 365.119C185.355 362.721 184.353 360.541 182.61 358.884C180.867 357.27 178.689 356.485 176.51 356.485Z" fill="#5252EE"/>
<path d="M351.931 224.793C346.876 224.793 342.127 222.918 338.423 219.473C330.406 212.016 329.971 199.414 337.421 191.39C341.038 187.509 345.961 185.285 351.234 185.067C356.506 184.849 361.604 186.768 365.438 190.387C369.316 194.006 371.538 198.934 371.756 204.21C371.93 209.53 370.057 214.589 366.44 218.47C362.824 222.351 357.9 224.575 352.628 224.793C352.41 224.793 352.149 224.793 351.931 224.793ZM351.974 196.012C351.844 196.012 351.756 196.012 351.626 196.012C349.229 196.1 347.051 197.102 345.395 198.847C342.04 202.466 342.258 208.135 345.831 211.493C347.574 213.106 349.926 213.978 352.236 213.891C354.632 213.804 356.811 212.801 358.467 211.057C360.079 209.312 360.95 207.045 360.863 204.646C360.776 202.248 359.774 200.068 358.031 198.411C356.375 196.841 354.24 196.012 351.974 196.012Z" fill="#5252EE"/>
<path d="M272.412 605C267.357 605 262.608 603.125 258.904 599.68C250.887 592.223 250.451 579.621 257.902 571.597C265.397 563.574 277.945 563.137 285.963 570.594C289.841 574.214 292.063 579.141 292.281 584.418C292.498 589.694 290.581 594.796 286.965 598.633C283.348 602.514 278.425 604.738 273.152 604.956C272.847 604.956 272.63 605 272.412 605ZM272.412 576.176C270.015 576.176 267.619 577.135 265.876 579.01C262.521 582.63 262.739 588.299 266.312 591.656C268.055 593.27 270.32 594.185 272.717 594.055C275.113 593.967 277.292 592.964 278.948 591.22C280.56 589.476 281.431 587.208 281.344 584.81C281.257 582.412 280.255 580.231 278.512 578.574C276.769 577.004 274.59 576.176 272.412 576.176Z" fill="#5252EE"/>
</g>
<defs>
<clipPath id="clip0_5_3">
<rect width="647" height="605" fill="white"/>
</clipPath>
</defs>
</svg>
