<svg width="15" height="15" viewBox="0 0 15 15" fill="none" xmlns="http://www.w3.org/2000/svg">
<path d="M7.51365 14.8438C5.7794 14.8438 4.02952 14.221 2.67023 12.9444C1.2797 11.6522 0.482874 9.89292 0.404754 8.00911C0.342259 6.10973 1.01409 4.30376 2.31088 2.91814C4.98257 0.0535037 9.4979 -0.102177 12.3727 2.56007C13.7632 3.85227 14.5601 5.61153 14.6382 7.49534C14.7007 9.39472 14.0288 11.2007 12.732 12.5863C11.3259 14.0809 9.41978 14.8438 7.51365 14.8438ZM7.51365 4.56843C6.65434 4.56843 5.79502 4.91095 5.17006 5.5804C4.59198 6.20315 4.27949 7.01271 4.31074 7.86899C4.34199 8.72526 4.70134 9.5037 5.3263 10.0953C6.62309 11.2941 8.6542 11.2318 9.85725 9.93963C10.4353 9.31688 10.7478 8.5073 10.7166 7.65103C10.6853 6.79475 10.326 6.01631 9.701 5.4247C9.09166 4.84866 8.29485 4.56843 7.51365 4.56843Z" fill="#5252EE"/>
</svg>
