<svg width="36" height="52" viewBox="0 0 36 52" fill="none" xmlns="http://www.w3.org/2000/svg">
<path d="M15.2333 30.3589C14.1553 30.3589 13.2804 29.4871 13.2804 28.4129C13.2804 22.1854 8.20257 17.1256 1.95299 17.1256C0.874941 17.1256 0 16.2537 0 15.1795C0 14.1052 0.874941 13.2334 1.95299 13.2334C8.20257 13.2334 13.2804 8.17356 13.2804 1.94609C13.2804 0.871847 14.1553 0 15.2333 0C16.3114 0 17.1863 0.871847 17.1863 1.94609C17.1863 8.17356 22.2641 13.2334 28.5137 13.2334C29.5918 13.2334 30.4667 14.1052 30.4667 15.1795C30.4667 16.2537 29.5918 17.1256 28.5137 17.1256C22.2641 17.1256 17.1863 22.1854 17.1863 28.4129C17.1863 29.4871 16.3114 30.3589 15.2333 30.3589ZM9.40561 15.1639C11.8429 16.534 13.8584 18.5423 15.2333 20.971C16.6083 18.5423 18.6238 16.534 21.0611 15.1639C18.6238 13.7939 16.6083 11.7855 15.2333 9.35678C13.8584 11.7855 11.8429 13.7939 9.40561 15.1639Z" fill="#00C5D9"/>
<path d="M28.5137 51.8438C26.7794 51.8438 25.0295 51.221 23.6702 49.9444C22.2797 48.6522 21.4829 46.8929 21.4048 45.0091C21.3423 43.1097 22.0141 41.3038 23.3109 39.9181C25.9826 37.0535 30.4979 36.8978 33.3727 39.5601C34.7632 40.8523 35.5601 42.6115 35.6382 44.4953C35.7007 46.3947 35.0288 48.2007 33.732 49.5863C32.3259 51.0809 30.4198 51.8438 28.5137 51.8438ZM28.5137 41.5684C27.6543 41.5684 26.795 41.9109 26.1701 42.5804C25.592 43.2031 25.2795 44.0127 25.3107 44.869C25.342 45.7253 25.7013 46.5037 26.3263 47.0953C27.6231 48.2941 29.6542 48.2318 30.8572 46.9396C31.4353 46.3169 31.7478 45.5073 31.7166 44.651C31.6853 43.7947 31.326 43.0163 30.701 42.4247C30.0917 41.8487 29.2949 41.5684 28.5137 41.5684Z" fill="#5252EE"/>
</svg>
