<svg width="31" height="31" viewBox="0 0 31 31" fill="none" xmlns="http://www.w3.org/2000/svg">
<path d="M15.2333 30.3589C14.1553 30.3589 13.2804 29.4871 13.2804 28.4129C13.2804 22.1854 8.20257 17.1256 1.95299 17.1256C0.874941 17.1256 0 16.2537 0 15.1795C0 14.1052 0.874941 13.2334 1.95299 13.2334C8.20257 13.2334 13.2804 8.17356 13.2804 1.94609C13.2804 0.871847 14.1553 0 15.2333 0C16.3114 0 17.1863 0.871847 17.1863 1.94609C17.1863 8.17356 22.2641 13.2334 28.5137 13.2334C29.5918 13.2334 30.4667 14.1052 30.4667 15.1795C30.4667 16.2537 29.5918 17.1256 28.5137 17.1256C22.2641 17.1256 17.1863 22.1854 17.1863 28.4129C17.1863 29.4871 16.3114 30.3589 15.2333 30.3589ZM9.40561 15.1639C11.8429 16.534 13.8584 18.5423 15.2333 20.971C16.6083 18.5423 18.6238 16.534 21.0611 15.1639C18.6238 13.7939 16.6083 11.7855 15.2333 9.35678C13.8584 11.7855 11.8429 13.7939 9.40561 15.1639Z" fill="#00C5D9"/>
</svg>
